<svg width="1872" height="268" viewBox="0 0 1872 268" xmlns="http://www.w3.org/2000/svg">
<path fill-rule="evenodd" clip-rule="evenodd" d="M0 12.001V268H22.1H133.9H267.8H401.7H534.3H668.2H802.1H936H1069.9H1203.8H1337.7H1470.3H1604.2H1738.1H1849.77H1872V108.001L1849.9 102.701C1838.88 99.8574 1822.16 95.9441 1802.62 91.3705C1782.99 86.7754 1760.51 81.5137 1738.1 76.0007C1693.9 65.0008 1649.18 55.0008 1604.2 76.0007C1575.43 89.6702 1546.49 117.322 1517.36 145.166C1501.73 160.098 1486.05 175.085 1470.3 188C1426.1 225 1381.77 247 1337.7 204C1317.88 185.273 1298.32 154.598 1278.89 124.14C1253.7 84.662 1228.75 45.5504 1203.8 33.3009C1173.39 19.0664 1143.62 42.9276 1113.99 66.6811C1099.28 78.4714 1084.6 90.2352 1069.9 97.3007C1040.63 111.671 1010.96 106.877 981.309 102.086C966.183 99.6424 951.062 97.1993 936 97.3007C891.8 97.0007 846.82 119.001 802.1 145.3C795.191 149.474 788.269 153.777 781.336 158.087C743.913 181.352 706.149 204.829 668.2 209.3C637.291 213.286 606.192 203.727 574.857 194.095C561.383 189.953 547.865 185.798 534.3 182.7C490.1 172 445.77 172 401.7 172C356.2 172 312 172 267.8 140C246.353 124.917 225.224 102.724 204.235 80.6783C180.697 55.954 157.335 31.4156 133.9 17.301C89.7 -8.9989 44.59 1.00105 22.23 6.70103L0 12.001Z" fill="#1e1e20"/>
</svg>
