<?xml version="1.0" encoding="UTF-8" standalone="no"?>
<!-- Created with Inkscape (http://www.inkscape.org/) -->

<svg
   width="89.429169mm"
   height="89.958336mm"
   viewBox="0 0 89.429169 89.958336"
   version="1.1"
   id="svg1"
   xml:space="preserve"
   inkscape:version="1.4 (e7c3feb1, 2024-10-09)"
   sodipodi:docname="art-paper.svg"
   xmlns:inkscape="http://www.inkscape.org/namespaces/inkscape"
   xmlns:sodipodi="http://sodipodi.sourceforge.net/DTD/sodipodi-0.dtd"
   xmlns="http://www.w3.org/2000/svg"
   xmlns:svg="http://www.w3.org/2000/svg"><sodipodi:namedview
     id="namedview1"
     pagecolor="#ffffff"
     bordercolor="#000000"
     borderopacity="0.25"
     inkscape:showpageshadow="2"
     inkscape:pageopacity="0.0"
     inkscape:pagecheckerboard="0"
     inkscape:deskcolor="#d1d1d1"
     inkscape:document-units="mm"
     inkscape:zoom="1"
     inkscape:cx="197.5"
     inkscape:cy="310"
     inkscape:window-width="1712"
     inkscape:window-height="1371"
     inkscape:window-x="1724"
     inkscape:window-y="34"
     inkscape:window-maximized="0"
     inkscape:current-layer="layer1" /><defs
     id="defs1"><inkscape:path-effect
       effect="bspline"
       id="path-effect14"
       is_visible="true"
       lpeversion="1.3"
       weight="33.333333"
       steps="2"
       helper_size="0"
       apply_no_weight="true"
       apply_with_weight="true"
       only_selected="false"
       uniform="false" /><inkscape:path-effect
       effect="bspline"
       id="path-effect13"
       is_visible="true"
       lpeversion="1.3"
       weight="33.333333"
       steps="2"
       helper_size="0"
       apply_no_weight="true"
       apply_with_weight="true"
       only_selected="false"
       uniform="false" /><inkscape:path-effect
       effect="bspline"
       id="path-effect12"
       is_visible="true"
       lpeversion="1.3"
       weight="33.333333"
       steps="2"
       helper_size="0"
       apply_no_weight="true"
       apply_with_weight="true"
       only_selected="false"
       uniform="false" /><inkscape:path-effect
       effect="bspline"
       id="path-effect11"
       is_visible="true"
       lpeversion="1.3"
       weight="33.333333"
       steps="2"
       helper_size="0"
       apply_no_weight="true"
       apply_with_weight="true"
       only_selected="false"
       uniform="false" /><inkscape:path-effect
       effect="bspline"
       id="path-effect10"
       is_visible="true"
       lpeversion="1.3"
       weight="33.333333"
       steps="2"
       helper_size="0"
       apply_no_weight="true"
       apply_with_weight="true"
       only_selected="false"
       uniform="false" /><inkscape:path-effect
       effect="bspline"
       id="path-effect9"
       is_visible="true"
       lpeversion="1.3"
       weight="33.333333"
       steps="2"
       helper_size="0"
       apply_no_weight="true"
       apply_with_weight="true"
       only_selected="false"
       uniform="false" /><inkscape:path-effect
       effect="bspline"
       id="path-effect8"
       is_visible="true"
       lpeversion="1.3"
       weight="33.333333"
       steps="2"
       helper_size="0"
       apply_no_weight="true"
       apply_with_weight="true"
       only_selected="false"
       uniform="false" /><inkscape:path-effect
       effect="simplify"
       id="path-effect7"
       is_visible="true"
       lpeversion="1.3"
       threshold="17.241379"
       steps="1"
       smooth_angles="360"
       helper_size="0"
       simplify_individual_paths="false"
       simplify_just_coalesce="false" /><inkscape:path-effect
       effect="simplify"
       id="path-effect1"
       is_visible="true"
       lpeversion="1.3"
       threshold="17.241379"
       steps="1"
       smooth_angles="360"
       helper_size="0"
       simplify_individual_paths="false"
       simplify_just_coalesce="false" /></defs><g
     inkscape:label="Layer 1"
     inkscape:groupmode="layer"
     id="layer1"
     transform="translate(-17.227835,-47.443069)"><path
       style="display:inline;opacity:0.89;fill:#bfcbff;fill-opacity:1;stroke:none;stroke-width:0.5;stroke-opacity:1"
       d="M 207.5,308.69035 C 194.8514,302.14848 183.13708,296.9474 162,288.48866 106.12266,266.12738 67.498406,253.24732 31.503497,244.97191 c -5.498076,-1.26404 -10.074765,-2.37651 -10.17042,-2.47217 -0.09566,-0.0957 6.187072,-10.59723 13.961617,-23.33683 C 77.891635,149.36228 88.2343,130.85797 98.964325,105.25 108.37276,82.796085 119.4824,53.826089 125.52084,36 c 1.86308,-5.5 3.563,-10.199938 3.7776,-10.444307 0.22097,-0.251632 1.899,0.114961 3.86951,0.845361 10.33439,3.830596 53.89003,14.237346 75.58205,18.058818 18.7127,3.296609 25.50623,3.828639 97.125,7.606272 7.39607,0.390116 6.80356,-0.393702 5.57433,7.374191 -1.126,7.115495 -3.24741,13.770242 -10.94696,34.34004 -3.69808,9.879645 -9.5682,25.895735 -13.0447,35.591305 -10.93948,30.50895 -14.18006,39.10642 -26.71568,70.87832 -4.1773,10.5875 -11.37258,29.2625 -15.9895,41.5 -4.61692,12.2375 -9.6636,25.49728 -11.21485,29.46617 -3.86859,9.89783 -16.84511,41.21591 -17.22731,41.57711 -0.17068,0.1613 -4.13533,-1.68501 -8.81033,-4.10293 z"
       id="path17"
       transform="matrix(0.26458333,0,0,0.26458333,17.227835,47.443069)" /><path
       style="opacity:0.89;fill:#e4e9ff;fill-opacity:1;stroke:none;stroke-width:0.353553;stroke-opacity:1"
       d="m 105.96315,88.565124 c 0.11407,-0.291682 1.58988,-4.030509 3.27957,-8.308505 3.56303,-9.020921 9.3277,-24.228021 11.87057,-31.31437 2.09456,-5.837026 8.11047,-23.046598 8.11047,-23.201437 0,-0.326815 1.54133,0.05007 5.9145,1.446202 5.41078,1.727394 13.80035,4.020133 22.90011,6.258238 3.30572,0.81305 6.15495,1.608609 6.33162,1.767907 0.53085,0.478662 -3.41499,4.64088 -9.84084,10.380473 -3.3202,2.965612 -8.58231,7.825826 -11.69358,10.800477 -13.5766,12.980438 -20.18327,18.94173 -28.8146,25.999833 -7.58129,6.199449 -8.27735,6.732529 -8.05782,6.171182 z"
       id="path18"
       transform="matrix(0.26458333,0,0,0.26458333,17.227835,47.443069)" /><path
       style="opacity:0.89;fill:#e4e9ff;fill-opacity:1;stroke:none;stroke-width:0.353553;stroke-opacity:1"
       d="m 203.8122,306.7063 c -6.70244,-3.29943 -16.64104,-7.90098 -22.08576,-10.22567 -21.21334,-9.05727 -59.44806,-23.867 -78.22078,-30.29782 -2.76938,-0.94868 -5.029761,-1.80442 -5.023076,-1.90165 0.0067,-0.0972 0.840648,-0.80825 1.853246,-1.58006 4.15356,-3.16582 37.18551,-29.61735 46.38883,-37.14752 36.98798,-30.26365 69.11331,-58.02153 97.75751,-84.46735 12.15012,-11.21763 15.94915,-14.82749 56.00474,-53.215947 1.73168,-1.659608 3.03004,-2.699271 2.88524,-2.310363 -3.48505,9.360144 -10.43686,28.33468 -16.64503,45.43161 -12.02205,33.10801 -12.43371,34.19726 -27.92653,73.89266 -3.83265,9.81994 -10.62511,27.47994 -15.09436,39.24443 -4.46924,11.76448 -9.29207,24.3543 -10.71739,27.97738 -4.79453,12.18739 -16.27534,39.84681 -16.74443,40.34045 -0.13527,0.14235 -5.72976,-2.44072 -12.43221,-5.74015 z"
       id="path19"
       transform="matrix(0.26458333,0,0,0.26458333,17.227835,47.443069)" /></g><g
     inkscape:groupmode="layer"
     id="layer3"
     inkscape:label="Layer 3"
     style="display:none"><path
       style="opacity:0.89;fill:#000000;stroke-width:0.264583"
       d="M 22.378975,111.9059 C 32.043494,92.552333 41.708014,73.198767 51.372533,53.8452"
       id="path1"
       inkscape:path-effect="#path-effect1"
       inkscape:original-d="M 22.378975,111.9059 51.372533,53.8452"
       transform="translate(-17.227835,-47.44307)" /><path
       id="path11"
       style="opacity:0.89;fill:none;stroke:#000000;stroke-width:0.264583"
       inkscape:path-effect="#path-effect12"
       inkscape:original-d="m 22.452562,111.75873 c 2.845391,0.63776 5.690782,1.27552 8.536175,1.91328 3.777578,1.17742 7.555004,2.3548 11.332507,3.53221 3.826636,1.42272 7.653123,2.84539 11.479683,4.26808 2.7228,1.07931 5.44549,2.15858 8.168235,3.23786 2.011439,0.83402 4.022796,1.66799 6.034193,2.50199 2.183146,1.12836 4.366202,2.25669 6.549305,3.38503 m 0,0 c 1.741578,-4.14544 3.483153,-8.29088 5.224727,-12.43632 1.300076,-3.65493 2.6001,-7.30971 3.900149,-10.96457 2.109557,-5.17577 4.21903,-10.351338 6.328545,-15.527006 1.69255,-4.856888 3.385034,-9.713579 5.07755,-14.570369 0.883071,-2.281264 1.766107,-4.562437 2.649159,-6.843656 0.662302,-1.79067 1.324578,-3.581268 1.986867,-5.371903 0.122648,-1.251016 0.245288,-2.501982 0.367933,-3.752973 m 0,0 C 95.647805,60.885091 91.208012,60.639798 86.768221,60.394506 83.726534,60.247328 80.684969,60.100155 77.643346,59.95298 74.675247,59.437855 71.70727,58.922752 68.739233,58.407638 65.648487,57.647216 62.557865,56.886825 59.46718,56.126419 57.848218,55.758473 56.22932,55.390542 54.61039,55.022603 53.506554,54.605598 52.40276,54.188609 51.298945,53.771612 M 22.452562,111.75873 c 2.747275,-4.48885 5.494549,-8.9777 8.241824,-13.466552 2.894508,-4.856888 5.7889,-9.713579 8.68335,-14.570369 1.030248,-2.134087 2.060456,-4.268086 3.090684,-6.402131 2.109555,-5.32295 4.219028,-10.645687 6.328543,-15.968532 0.834011,-2.526562 1.667989,-5.053022 2.501982,-7.579534"
       d="m 22.452562,111.75873 c 2.845391,0.63776 5.690782,1.27552 9.002267,2.18311 3.311484,0.9076 7.08891,2.08498 10.89098,3.38504 3.802071,1.30006 7.628559,2.72273 10.903239,3.97373 3.27468,1.251 5.997371,2.33026 8.364463,3.28691 2.367092,0.95665 4.378446,1.79063 6.475717,2.77181 2.09727,0.98118 4.280331,2.10951 6.463432,3.23785 m 0,0 c 1.741576,-4.14544 3.483152,-8.29088 5.003977,-12.19107 1.520826,-3.90018 2.820848,-7.55496 4.525652,-11.97028 1.704803,-4.41531 3.814277,-9.590878 5.71531,-14.607156 1.901033,-5.016278 3.593515,-9.872969 4.881309,-13.441996 1.287794,-3.569027 2.170829,-5.8502 2.943507,-7.886145 0.772677,-2.035944 1.434953,-3.826542 1.827421,-5.347368 0.392468,-1.520825 0.51511,-2.771791 0.637754,-4.022782 m 0,0 C 95.647805,60.885091 91.208012,60.639798 87.467273,60.443563 83.726534,60.247328 80.684969,60.100155 77.680108,59.769005 74.675247,59.437855 71.70727,58.922752 68.677878,58.284984 65.648487,57.647216 62.557865,56.886825 60.203041,56.322649 57.848218,55.758473 56.22932,55.390542 54.867937,54.99807 53.506554,54.605598 52.40276,54.188609 51.298945,53.771612 M 22.452562,111.75873 c 2.747274,-4.48885 5.494549,-8.9777 8.315441,-13.65057 2.820891,-4.67287 5.715283,-9.529561 7.677632,-13.024999 1.96235,-3.495439 2.992556,-5.629438 4.562449,-9.357935 1.569892,-3.728498 3.679364,-9.051235 5.151127,-12.975938 1.471763,-3.924704 2.30574,-6.451164 3.139734,-8.977676"
       sodipodi:nodetypes="cccccccccccccccccccccccccccc"
       transform="translate(-17.227835,-47.44307)" /></g><g
     inkscape:groupmode="layer"
     id="layer2"
     inkscape:label="Layer 2"
     style="display:none"><path
       style="opacity:0.89;fill:none;stroke:#000000;stroke-width:0.264583"
       d="m 42.806015,117.48479 c 3.566854,-2.81627 7.133707,-5.63254 11.578609,-9.24835 4.444902,-3.61581 9.767638,-8.03098 14.82071,-12.384966 5.053072,-4.353983 9.836178,-8.646513 14.262681,-12.771475 4.426504,-4.124962 8.496147,-8.082113 10.883079,-10.382914 2.386932,-2.3008 3.091043,-2.945146 3.795168,-3.589504"
       id="path12"
       inkscape:original-d="m 42.806015,117.48479 c 3.566854,-2.81627 7.133707,-5.63254 10.70056,-8.44881 5.322951,-4.41535 10.64569,-8.83052 15.968533,-13.245787 4.783299,-4.2927 9.566404,-8.585232 14.349605,-12.877847 4.069805,-3.95731 8.139449,-7.91446 12.209174,-11.871691 0.704138,-0.644371 1.40825,-1.288716 2.112375,-1.933074"
       inkscape:path-effect="#path-effect13"
       transform="translate(-17.227835,-47.44307)" /><path
       style="opacity:0.89;fill:none;stroke:#000000;stroke-width:0.264583"
       d="m 44.672709,71.679023 c 1.488401,-1.179761 2.976802,-2.359522 4.479852,-3.649712 1.50305,-1.290191 3.020689,-2.690755 4.421294,-4.019813 1.400605,-1.329057 2.684093,-2.586529 3.711779,-3.523154 1.027687,-0.936624 1.799514,-1.552352 2.413443,-2.151885 0.613928,-0.599534 1.069926,-1.182838 1.525931,-1.766152"
       id="path13"
       inkscape:original-d="m 44.672709,71.679023 c 1.488401,-1.179762 2.976801,-2.359523 4.465204,-3.539284 1.517697,-1.40062 3.035337,-2.801183 4.553005,-4.201775 1.283542,-1.257523 2.56703,-2.514995 3.850545,-3.772492 0.771858,-0.615752 1.543685,-1.23148 2.315527,-1.84722 0.456015,-0.583327 0.912014,-1.16663 1.368018,-1.749945"
       inkscape:path-effect="#path-effect14"
       transform="translate(-17.227835,-47.44307)" /></g></svg>
