
<svg width="120" height="160" viewBox="0 0 120 160" fill="none" xmlns="http://www.w3.org/2000/svg">
<rect x="16.0273" y="89.9375" width="80.1422" height="55.209" rx="7.12375" fill="#A95EF8"/>
<path fill-rule="evenodd" clip-rule="evenodd" d="M47.9297 135.352H13.3542C9.41988 135.352 6.23047 138.541 6.23047 142.475V152.27C6.23047 156.205 9.41987 159.394 13.3542 159.394H97.9487C101.883 159.394 105.072 156.205 105.072 152.27V142.475C105.072 138.541 101.883 135.352 97.9487 135.352H63.3737C63.3737 136.103 63.174 136.848 62.7859 137.542C62.3979 138.237 61.8291 138.868 61.112 139.399C60.395 139.931 59.5437 140.352 58.6068 140.64C57.6699 140.928 56.6658 141.076 55.6517 141.076C54.6376 141.076 53.6335 140.928 52.6966 140.64C51.7597 140.352 50.9085 139.931 50.1914 139.399C49.4744 138.868 48.9056 138.237 48.5175 137.542C48.1295 136.848 47.9297 136.103 47.9297 135.352Z" fill="#721CC9"/>
<rect x="27.6055" y="103.295" width="56.99" height="3.56187" rx="1.78094" fill="#F6EFFD"/>
<rect x="38.293" y="112.199" width="35.6187" height="3.56187" rx="1.78094" fill="#F6EFFD"/>
<rect x="46.3047" y="121.104" width="19.5903" height="3.56187" rx="1.78094" fill="#F6EFFD"/>
<rect y="10.3691" width="40.0647" height="30.0485" rx="7.12375" transform="rotate(-15 0 10.3691)" fill="#EDE2FF"/>
<path d="M15.0475 21.5308C15.2249 20.8687 16.0526 20.6469 16.5373 21.1316L21.9902 26.5846C22.475 27.0693 22.2532 27.897 21.5911 28.0744L14.1421 30.0703C13.48 30.2477 12.8741 29.6418 13.0515 28.9797L15.0475 21.5308Z" fill="#D4B2F7"/>
<path d="M25.3727 10.4659C25.5501 9.80376 26.3777 9.58199 26.8624 10.0667L34.9516 18.1559C35.4363 18.6406 35.2145 19.4682 34.5524 19.6456L23.5024 22.6065C22.8403 22.7839 22.2344 22.178 22.4118 21.5159L25.3727 10.4659Z" fill="#D4B2F7"/>
<rect x="68.2383" y="23.1523" width="54.3186" height="40.0711" rx="7.12375" transform="rotate(17.6282 68.2383 23.1523)" fill="#D4B2F7"/>
<path d="M72.1976 52.7145C71.7609 52.9406 71.5902 53.4779 71.8163 53.9146C72.0424 54.3514 72.5797 54.5221 73.0164 54.296L72.1976 52.7145ZM82.1128 48.5839L82.8321 48.059L82.3818 47.4419L81.7034 47.7931L82.1128 48.5839ZM86.9945 55.274L86.2752 55.7989L86.71 56.3948L87.3764 56.0784L86.9945 55.274ZM104.339 47.7366C104.504 47.2733 104.262 46.764 103.798 46.599L96.2487 43.9102C95.7854 43.7452 95.2761 43.987 95.1111 44.4503C94.9461 44.9136 95.1879 45.4229 95.6512 45.5879L102.362 47.9779L99.972 54.6888C99.807 55.1521 100.049 55.6614 100.512 55.8264C100.975 55.9914 101.485 55.7496 101.65 55.2863L104.339 47.7366ZM73.0164 54.296L82.5222 49.3746L81.7034 47.7931L72.1976 52.7145L73.0164 54.296ZM81.3935 49.1087L86.2752 55.7989L87.7138 54.7491L82.8321 48.059L81.3935 49.1087ZM87.3764 56.0784L103.882 48.2423L103.118 46.6334L86.6126 54.4696L87.3764 56.0784Z" fill="#F6EFFD"/>
</svg>
