<svg width="29" height="33" viewBox="0 0 29 33" fill="none" xmlns="http://www.w3.org/2000/svg">
<g clip-path="url(#clip0_2417_109697)">
<path d="M14.4995 0C22.2315 0 28.4995 6.26801 28.4995 14C28.4995 19.8214 24.9459 24.8114 19.8901 26.9229L14.4995 32.3135L9.10791 26.9229C4.05258 24.8112 0.499512 19.821 0.499512 14C0.499512 6.26801 6.76753 0 14.4995 0Z" fill="#EDE2FF"/>
<path d="M15.1662 11.3333H11.1662M17.8328 14H11.1662M20.4995 16C20.4995 16.3536 20.359 16.6928 20.109 16.9428C19.8589 17.1929 19.5198 17.3333 19.1662 17.3333H11.1662L8.49951 20V9.33333C8.49951 8.97971 8.63999 8.64057 8.89004 8.39052C9.14008 8.14048 9.47922 8 9.83285 8H19.1662C19.5198 8 19.8589 8.14048 20.109 8.39052C20.359 8.64057 20.4995 8.97971 20.4995 9.33333V16Z" stroke="black" stroke-linecap="round" stroke-linejoin="round"/>
</g>
<defs>
<clipPath id="clip0_2417_109697">
<rect width="28" height="33" fill="white" transform="translate(0.499512)"/>
</clipPath>
</defs>
</svg>
