<svg width="31" height="35" viewBox="0 0 31 35" fill="none" xmlns="http://www.w3.org/2000/svg">
<g clip-path="url(#clip0_2417_109695)" filter="url(#filter0_d_2417_109695)">
<mask id="path-1-inside-1_2417_109695" fill="white">
<path d="M15.4995 0C23.2315 0 29.4995 6.26801 29.4995 14C29.4995 19.8214 25.9459 24.8114 20.8901 26.9229L15.4995 32.3135L10.1079 26.9229C5.05258 24.8112 1.49951 19.821 1.49951 14C1.49951 6.26801 7.76753 0 15.4995 0Z"/>
</mask>
<path d="M15.4995 0C23.2315 0 29.4995 6.26801 29.4995 14C29.4995 19.8214 25.9459 24.8114 20.8901 26.9229L15.4995 32.3135L10.1079 26.9229C5.05258 24.8112 1.49951 19.821 1.49951 14C1.49951 6.26801 7.76753 0 15.4995 0Z" fill="#D4B2F7"/>
<path d="M20.8901 26.9229L20.5048 26.0001L20.3226 26.0762L20.183 26.2157L20.8901 26.9229ZM15.4995 32.3135L14.7925 33.0206L15.4996 33.7276L16.2066 33.0206L15.4995 32.3135ZM10.1079 26.9229L10.815 26.2157L10.6754 26.0762L10.4933 26.0001L10.1079 26.9229ZM15.4995 0V1C22.6792 1 28.4995 6.8203 28.4995 14H29.4995H30.4995C30.4995 5.71573 23.7838 -1 15.4995 -1V0ZM29.4995 14H28.4995C28.4995 19.4038 25.2015 24.0386 20.5048 26.0001L20.8901 26.9229L21.2755 27.8456C26.6903 25.5843 30.4995 20.2389 30.4995 14H29.4995ZM20.8901 26.9229L20.183 26.2157L14.7924 31.6064L15.4995 32.3135L16.2066 33.0206L21.5972 27.63L20.8901 26.9229ZM15.4995 32.3135L16.2066 31.6063L10.815 26.2157L10.1079 26.9229L9.40087 27.63L14.7925 33.0206L15.4995 32.3135ZM10.1079 26.9229L10.4933 26.0001C5.79702 24.0385 2.49951 19.4035 2.49951 14H1.49951H0.499512C0.499512 20.2385 4.30814 25.584 9.72248 27.8456L10.1079 26.9229ZM1.49951 14H2.49951C2.49951 6.8203 8.31981 1 15.4995 1V0V-1C7.21524 -1 0.499512 5.71573 0.499512 14H1.49951Z" fill="white" mask="url(#path-1-inside-1_2417_109695)"/>
<path d="M16.1662 11.3333H12.1662M18.8328 14H12.1662M21.4995 16C21.4995 16.3536 21.359 16.6928 21.109 16.9428C20.8589 17.1929 20.5198 17.3333 20.1662 17.3333H12.1662L9.49951 20V9.33333C9.49951 8.97971 9.63999 8.64057 9.89004 8.39052C10.1401 8.14048 10.4792 8 10.8328 8H20.1662C20.5198 8 20.8589 8.14048 21.109 8.39052C21.359 8.64057 21.4995 8.97971 21.4995 9.33333V16Z" stroke="black" stroke-linecap="round" stroke-linejoin="round"/>
</g>
<defs>
<filter id="filter0_d_2417_109695" x="0.499512" y="0" width="30" height="35" filterUnits="userSpaceOnUse" color-interpolation-filters="sRGB">
<feFlood flood-opacity="0" result="BackgroundImageFix"/>
<feColorMatrix in="SourceAlpha" type="matrix" values="0 0 0 0 0 0 0 0 0 0 0 0 0 0 0 0 0 0 127 0" result="hardAlpha"/>
<feOffset dy="1"/>
<feGaussianBlur stdDeviation="0.5"/>
<feColorMatrix type="matrix" values="0 0 0 0 0.74902 0 0 0 0 0.796078 0 0 0 0 1 0 0 0 1 0"/>
<feBlend mode="multiply" in2="BackgroundImageFix" result="effect1_dropShadow_2417_109695"/>
<feBlend mode="normal" in="SourceGraphic" in2="effect1_dropShadow_2417_109695" result="shape"/>
</filter>
<clipPath id="clip0_2417_109695">
<rect width="28" height="33" fill="white" transform="translate(1.49951)"/>
</clipPath>
</defs>
</svg>
