<svg width="18" height="19" viewBox="0 0 18 19" fill="none" xmlns="http://www.w3.org/2000/svg">
<rect y="0.320312" width="18" height="18" rx="4" fill="#333333"/>
<path fill-rule="evenodd" clip-rule="evenodd" d="M10.5821 5.06454C10.9273 4.63339 11.5566 4.56367 11.9878 4.90882L12.9914 5.71228C13.4226 6.05743 13.4923 6.68674 13.1471 7.11789L8.25187 13.2329C7.91269 13.6566 7.29909 13.7312 6.8688 13.4061L6.40502 13.9855L4.69678 13.9858L5.82778 12.573C5.4099 12.2254 5.34574 11.6057 5.68689 11.1795L10.5821 5.06454ZM11.5711 5.42927C11.4274 5.31422 11.2176 5.33746 11.1026 5.48117L7.48461 10.0006L9.0087 11.2207L12.6267 6.70126C12.7417 6.55754 12.7185 6.34777 12.5748 6.23272L11.5711 5.42927ZM6.20733 11.5961L7.06797 10.5211L8.59206 11.7412L7.73142 12.8162C7.61637 12.96 7.4066 12.9832 7.26288 12.8681L6.25924 12.0647C6.11552 11.9496 6.09228 11.7399 6.20733 11.5961Z" fill="white"/>
</svg>
