<svg width="19" height="19" viewBox="0 0 19 19" fill="none" xmlns="http://www.w3.org/2000/svg">
<rect x="0.516602" y="0.193359" width="18" height="18" rx="4" fill="#333333"/>
<path fill-rule="evenodd" clip-rule="evenodd" d="M11.4964 7.19328C11.4964 8.28634 10.6103 9.17244 9.51725 9.17244C8.42419 9.17244 7.53809 8.28634 7.53809 7.19328C7.53809 6.10021 8.42419 5.21411 9.51725 5.21411C10.6103 5.21411 11.4964 6.10021 11.4964 7.19328ZM12.1839 7.19328C12.1839 8.66604 10.99 9.85994 9.51725 9.85994C8.04449 9.85994 6.85059 8.66604 6.85059 7.19328C6.85059 5.72052 8.04449 4.52661 9.51725 4.52661C10.99 4.52661 12.1839 5.72052 12.1839 7.19328ZM6.52734 11.9016C6.52734 11.3321 6.98905 10.8704 7.55859 10.8704H11.4753C12.0448 10.8704 12.5065 11.3321 12.5065 11.9016V13.8599H13.194V11.9016C13.194 10.9524 12.4245 10.1829 11.4753 10.1829H7.55859C6.60935 10.1829 5.83984 10.9524 5.83984 11.9016V13.8599H6.52734V11.9016Z" fill="white"/>
</svg>
