<svg width="18" height="18" viewBox="0 0 18 18" fill="none" xmlns="http://www.w3.org/2000/svg">
<rect width="18" height="18" rx="4" fill="#5551FF"/>
<path fill-rule="evenodd" clip-rule="evenodd" d="M11.1618 12.0027C11.2038 11.8648 11.2699 11.7367 11.3601 11.6185C11.5291 11.3969 11.7432 11.2464 12.0025 11.1669V6.83291C11.7432 6.75347 11.5291 6.60295 11.3601 6.38136C11.2699 6.2631 11.2038 6.13502 11.1618 5.99713H6.83267C6.76901 6.19927 6.66431 6.37317 6.51858 6.51882C6.37292 6.66456 6.19903 6.76925 5.99689 6.83291V11.1669C6.19903 11.2306 6.37292 11.3353 6.51858 11.481C6.66431 11.6267 6.76901 11.8006 6.83267 12.0027H11.1618ZM11.1612 12.7707C11.2201 12.9653 11.3266 13.1395 11.4808 13.2934C11.7302 13.5422 12.0325 13.6666 12.3876 13.6666C12.7428 13.6666 13.0447 13.5422 13.2934 13.2934C13.542 13.0445 13.6663 12.7422 13.6663 12.3867C13.6663 12.0999 13.5819 11.846 13.4129 11.6251C13.2439 11.4043 13.0297 11.2516 12.7704 11.1669V6.83291C13.0297 6.75347 13.2439 6.60295 13.4129 6.38136C13.5819 6.15976 13.6663 5.9037 13.6663 5.61316C13.6663 5.2576 13.5416 4.95537 13.2922 4.70647C13.0428 4.45766 12.7405 4.33325 12.3853 4.33325C12.0302 4.33325 11.7283 4.45766 11.4796 4.70647C11.3259 4.86033 11.2197 5.03457 11.161 5.22919H6.83267C6.74802 4.96988 6.59529 4.75571 6.37446 4.58667C6.15355 4.41773 5.8997 4.33325 5.61291 4.33325C5.25736 4.33325 4.95513 4.45766 4.70623 4.70647C4.45741 4.95537 4.33301 5.2576 4.33301 5.61316C4.33301 5.89994 4.41748 6.15379 4.58643 6.3747C4.75546 6.59553 4.96963 6.74826 5.22894 6.83291V11.1669C4.96963 11.2516 4.75546 11.4043 4.58643 11.6251C4.41748 11.846 4.33301 12.0999 4.33301 12.3867C4.33301 12.7422 4.45741 13.0445 4.70623 13.2934C4.95513 13.5422 5.25736 13.6666 5.61291 13.6666C5.8997 13.6666 6.15355 13.5821 6.37446 13.4132C6.59529 13.2441 6.74802 13.03 6.83267 12.7707H11.1612ZM5.97769 12.7515C5.87956 12.8496 5.75797 12.8986 5.61291 12.8986C5.46786 12.8986 5.34627 12.8496 5.24814 12.7515C5.15001 12.6533 5.10095 12.5317 5.10095 12.3867C5.10095 12.2416 5.15001 12.12 5.24814 12.0219C5.34627 11.9238 5.46786 11.8747 5.61291 11.8747C5.75797 11.8747 5.87956 11.9238 5.97769 12.0219C6.07581 12.12 6.12488 12.2416 6.12488 12.3867C6.12488 12.5317 6.07581 12.6533 5.97769 12.7515ZM12.7512 12.7515C12.6531 12.8496 12.5315 12.8986 12.3864 12.8986C12.2414 12.8986 12.1198 12.8496 12.0217 12.7515C11.9235 12.6533 11.8745 12.5317 11.8745 12.3867C11.8745 12.2416 11.9235 12.12 12.0217 12.0219C12.1198 11.9238 12.2414 11.8747 12.3864 11.8747C12.5315 11.8747 12.6531 11.9238 12.7512 12.0219C12.8493 12.12 12.8984 12.2416 12.8984 12.3867C12.8984 12.5317 12.8493 12.6533 12.7512 12.7515ZM5.97769 5.97793C5.87956 6.07606 5.75797 6.12512 5.61291 6.12512C5.46786 6.12512 5.34627 6.07606 5.24814 5.97793C5.15001 5.87981 5.10095 5.75821 5.10095 5.61316C5.10095 5.4681 5.15001 5.34651 5.24814 5.24838C5.34627 5.15026 5.46786 5.1012 5.61291 5.1012C5.75797 5.1012 5.87956 5.15026 5.97769 5.24838C6.07581 5.34651 6.12488 5.4681 6.12488 5.61316C6.12488 5.75821 6.07581 5.87981 5.97769 5.97793ZM12.7512 5.97793C12.6531 6.07606 12.5315 6.12512 12.3864 6.12512C12.2414 6.12512 12.1198 6.07606 12.0217 5.97793C11.9235 5.87981 11.8745 5.75821 11.8745 5.61316C11.8745 5.4681 11.9235 5.34651 12.0217 5.24838C12.1198 5.15026 12.2414 5.1012 12.3864 5.1012C12.5315 5.1012 12.6531 5.15026 12.7512 5.24838C12.8493 5.34651 12.8984 5.4681 12.8984 5.61316C12.8984 5.75821 12.8493 5.87981 12.7512 5.97793ZM7.74967 10.4433L10.2497 8.99993L7.74967 7.55656L7.74967 10.4433Z" fill="white"/>
</svg>
