<svg width="18" height="18" viewBox="0 0 18 18" fill="none" xmlns="http://www.w3.org/2000/svg">
<rect width="18" height="18" rx="4" fill="#333333"/>
<g clip-path="url(#clip0_22802_11242)">
<path fill-rule="evenodd" clip-rule="evenodd" d="M6.00033 11.5127L4.33366 13.6666V5.66659C4.33366 4.93021 4.93061 4.33325 5.66699 4.33325H12.3337C13.07 4.33325 13.667 4.93021 13.667 5.66659V10.1794C13.667 10.9158 13.07 11.5127 12.3337 11.5127H6.00033ZM5.00033 11.7157V5.66659C5.00033 5.2984 5.2988 4.99992 5.66699 4.99992H12.3337C12.7018 4.99992 13.0003 5.2984 13.0003 5.66659V10.1794C13.0003 10.5476 12.7018 10.8461 12.3337 10.8461H5.67325L5.00033 11.7157Z" fill="white"/>
</g>
<defs>
<clipPath id="clip0_22802_11242">
<rect width="12" height="12" fill="white" transform="matrix(-1 0 0 1 15 3)"/>
</clipPath>
</defs>
</svg>
