<svg width="18" height="18" viewBox="0 0 18 18" fill="none" xmlns="http://www.w3.org/2000/svg">
<rect width="18" height="18" rx="4" fill="#A95EF8"/>
<path fill-rule="evenodd" clip-rule="evenodd" d="M5.66634 4.99992H12.333C12.7012 4.99992 12.9997 5.2984 12.9997 5.66659V6.99992C12.9997 7.36811 12.7012 7.66659 12.333 7.66659H5.66634C5.29815 7.66659 4.99967 7.36811 4.99967 6.99992V5.66659C4.99967 5.2984 5.29815 4.99992 5.66634 4.99992ZM4.33301 5.66659C4.33301 4.93021 4.92996 4.33325 5.66634 4.33325H12.333C13.0694 4.33325 13.6663 4.93021 13.6663 5.66659V6.99992C13.6663 7.7363 13.0694 8.33325 12.333 8.33325H5.66634C4.92996 8.33325 4.33301 7.7363 4.33301 6.99992V5.66659ZM12.332 10.3333H5.66634C5.29815 10.3333 4.99967 10.6317 4.99967 10.9999V12.3333C4.99967 12.7014 5.29815 12.9999 5.66634 12.9999H10.333C10.333 13.2337 10.3731 13.4581 10.4468 13.6666H5.66634C4.92996 13.6666 4.33301 13.0696 4.33301 12.3333V10.9999C4.33301 10.2635 4.92996 9.66659 5.66634 9.66659H12.333C12.8549 9.66659 13.3067 9.96638 13.5257 10.4031C13.3581 10.3576 13.1817 10.3333 12.9997 10.3333L12.333 10.3333H12.332ZM12.333 10.9999H12.9997V12.3333H14.333V12.9999H12.9997V14.3333H12.333V12.9999H10.9997L10.9997 12.3333H12.333V10.9999Z" fill="white"/>
</svg>
