<svg width="18" height="18" viewBox="0 0 18 18" fill="none" xmlns="http://www.w3.org/2000/svg">
<rect width="18" height="18" rx="4" fill="#A95EF8"/>
<path d="M6.11521 9.74998C5.90897 9.74998 5.73241 9.67654 5.58553 9.52966C5.43867 9.38279 5.36523 9.20623 5.36523 8.99999C5.36523 8.79375 5.43867 8.61719 5.58553 8.47031C5.73241 8.32344 5.90897 8.25 6.11521 8.25C6.32146 8.25 6.49802 8.32344 6.64488 8.47031C6.79176 8.61719 6.8652 8.79375 6.8652 8.99999C6.8652 9.20623 6.79176 9.38279 6.64488 9.52966C6.49802 9.67654 6.32146 9.74998 6.11521 9.74998ZM8.99982 9.74998C8.79358 9.74998 8.61702 9.67654 8.47015 9.52966C8.32327 9.38279 8.24983 9.20623 8.24983 8.99999C8.24983 8.79375 8.32327 8.61719 8.47015 8.47031C8.61702 8.32344 8.79358 8.25 8.99982 8.25C9.20606 8.25 9.38262 8.32344 9.5295 8.47031C9.67637 8.61719 9.74981 8.79375 9.74981 8.99999C9.74981 9.20623 9.67637 9.38279 9.5295 9.52966C9.38262 9.67654 9.20606 9.74998 8.99982 9.74998ZM11.8844 9.74998C11.6782 9.74998 11.5016 9.67654 11.3548 9.52966C11.2079 9.38279 11.1344 9.20623 11.1344 8.99999C11.1344 8.79375 11.2079 8.61719 11.3548 8.47031C11.5016 8.32344 11.6782 8.25 11.8844 8.25C12.0907 8.25 12.2672 8.32344 12.4141 8.47031C12.561 8.61719 12.6344 8.79375 12.6344 8.99999C12.6344 9.20623 12.561 9.38279 12.4141 9.52966C12.2672 9.67654 12.0907 9.74998 11.8844 9.74998Z" fill="white"/>
</svg>
