<svg width="18" height="18" viewBox="0 0 18 18" fill="none" xmlns="http://www.w3.org/2000/svg">
<rect width="18" height="18" rx="4" fill="#A95EF8"/>
<path fill-rule="evenodd" clip-rule="evenodd" d="M10.333 5.66675C10.333 6.40313 9.73605 7.00008 8.99967 7.00008C8.26329 7.00008 7.66634 6.40313 7.66634 5.66675C7.66634 4.93037 8.26329 4.33341 8.99967 4.33341C9.73605 4.33341 10.333 4.93037 10.333 5.66675ZM10.9997 5.66675C10.9997 6.77132 10.1042 7.66675 8.99967 7.66675C7.89511 7.66675 6.99967 6.77132 6.99967 5.66675C6.99967 5.43299 7.03978 5.2086 7.11348 5.00008H5.66634C5.29815 5.00008 4.99967 5.29856 4.99967 5.66675V13.0001C4.99967 13.3683 5.29815 13.6667 5.66634 13.6667H12.333C12.7012 13.6667 12.9997 13.3683 12.9997 13.0001V5.66675C12.9997 5.29856 12.7012 5.00008 12.333 5.00008H10.8859C10.9596 5.2086 10.9997 5.43299 10.9997 5.66675ZM10.4904 4.33341C10.1242 3.92425 9.59201 3.66675 8.99967 3.66675C8.40734 3.66675 7.87515 3.92425 7.50894 4.33341H5.66634C4.92996 4.33341 4.33301 4.93037 4.33301 5.66675V13.0001C4.33301 13.7365 4.92996 14.3334 5.66634 14.3334H12.333C13.0694 14.3334 13.6663 13.7365 13.6663 13.0001V5.66675C13.6663 4.93037 13.0694 4.33341 12.333 4.33341H10.4904ZM11.6663 8.72546L7.98401 12.3334L6.33301 10.7158L6.73314 10.3237L7.98401 11.5493L11.2662 8.33342L11.6663 8.72546Z" fill="white"/>
</svg>
