<svg width="19" height="19" viewBox="0 0 19 19" fill="none" xmlns="http://www.w3.org/2000/svg">
<rect x="0.516602" y="0.193359" width="18" height="18" rx="4" fill="#333333"/>
<path fill-rule="evenodd" clip-rule="evenodd" d="M11.1829 6.86003H7.84961C6.56094 6.86003 5.51628 7.9047 5.51628 9.19336C5.51628 10.482 6.56095 11.5267 7.84961 11.5267H9.5166V12.1934H7.84961C6.19276 12.1934 4.84961 10.8502 4.84961 9.19336C4.84961 7.53651 6.19275 6.19336 7.84961 6.19336H11.1829C12.3608 6.19336 13.3801 6.87214 13.871 7.85986H13.0979C12.6763 7.25546 11.9758 6.86003 11.1829 6.86003ZM13.5233 9.86006L11.987 9.86026L14.0844 11.9576L13.613 12.429L11.5163 10.3323V11.8465H10.8496V9.19373L13.5232 9.1934L13.5233 9.86006Z" fill="white"/>
</svg>
