<svg width="18" height="19" viewBox="0 0 18 19" fill="none" xmlns="http://www.w3.org/2000/svg">
<rect y="0.349365" width="18" height="18" rx="4" fill="#333333"/>
<path d="M6.11521 10.0993C5.90897 10.0993 5.73241 10.0259 5.58553 9.87903C5.43867 9.73215 5.36523 9.55559 5.36523 9.34935C5.36523 9.14311 5.43867 8.96655 5.58553 8.81968C5.73241 8.6728 5.90897 8.59937 6.11521 8.59937C6.32146 8.59937 6.49802 8.6728 6.64488 8.81968C6.79176 8.96655 6.8652 9.14311 6.8652 9.34935C6.8652 9.55559 6.79176 9.73215 6.64488 9.87903C6.49802 10.0259 6.32146 10.0993 6.11521 10.0993ZM8.99982 10.0993C8.79358 10.0993 8.61702 10.0259 8.47015 9.87903C8.32327 9.73215 8.24983 9.55559 8.24983 9.34935C8.24983 9.14311 8.32327 8.96655 8.47015 8.81968C8.61702 8.6728 8.79358 8.59937 8.99982 8.59937C9.20606 8.59937 9.38262 8.6728 9.5295 8.81968C9.67637 8.96655 9.74981 9.14311 9.74981 9.34935C9.74981 9.55559 9.67637 9.73215 9.5295 9.87903C9.38262 10.0259 9.20606 10.0993 8.99982 10.0993ZM11.8844 10.0993C11.6782 10.0993 11.5016 10.0259 11.3548 9.87903C11.2079 9.73215 11.1344 9.55559 11.1344 9.34935C11.1344 9.14311 11.2079 8.96655 11.3548 8.81968C11.5016 8.6728 11.6782 8.59937 11.8844 8.59937C12.0907 8.59937 12.2672 8.6728 12.4141 8.81968C12.561 8.96655 12.6344 9.14311 12.6344 9.34935C12.6344 9.55559 12.561 9.73215 12.4141 9.87903C12.2672 10.0259 12.0907 10.0993 11.8844 10.0993Z" fill="white"/>
</svg>
