<svg width="18" height="18" viewBox="0 0 18 18" fill="none" xmlns="http://www.w3.org/2000/svg">
<rect width="18" height="18" rx="4" fill="#333333"/>
<mask id="mask0_23359_134447" style="mask-type:alpha" maskUnits="userSpaceOnUse" x="3" y="3" width="12" height="12">
<rect x="3" y="3" width="12" height="12" fill="#D9D9D9"/>
</mask>
<g mask="url(#mask0_23359_134447)">
<path d="M5.65387 13.25C5.40129 13.25 5.1875 13.1625 5.0125 12.9875C4.8375 12.8125 4.75 12.5987 4.75 12.3461V5.65387C4.75 5.40129 4.8375 5.1875 5.0125 5.0125C5.1875 4.8375 5.40129 4.75 5.65387 4.75H12.3461C12.5987 4.75 12.8125 4.8375 12.9875 5.0125C13.1625 5.1875 13.25 5.40129 13.25 5.65387V12.3461C13.25 12.5987 13.1625 12.8125 12.9875 12.9875C12.8125 13.1625 12.5987 13.25 12.3461 13.25H5.65387ZM5.65387 12.5H8.625V5.5H5.65387C5.61537 5.5 5.58013 5.51604 5.54813 5.54812C5.51604 5.58012 5.5 5.61537 5.5 5.65387V12.3461C5.5 12.3846 5.51604 12.4199 5.54813 12.4519C5.58013 12.484 5.61537 12.5 5.65387 12.5ZM9.375 12.5H12.3461C12.3846 12.5 12.4199 12.484 12.4519 12.4519C12.484 12.4199 12.5 12.3846 12.5 12.3461V9H9.375V12.5ZM9.375 8.25H12.5V5.65387C12.5 5.61537 12.484 5.58012 12.4519 5.54812C12.4199 5.51604 12.3846 5.5 12.3461 5.5H9.375V8.25Z" fill="white"/>
</g>
</svg>
