<svg width="19" height="19" viewBox="0 0 19 19" fill="none" xmlns="http://www.w3.org/2000/svg">
<rect x="0.516602" y="0.193359" width="18" height="18" rx="4" fill="#333333"/>
<path fill-rule="evenodd" clip-rule="evenodd" d="M14.1834 8.19336C14.1834 5.80013 12.2433 3.86003 9.8501 3.86003C7.45686 3.86003 5.51676 5.80013 5.51676 8.19336C5.51676 9.61994 6.20613 10.8855 7.2699 11.6751H12.4303C13.4941 10.8855 14.1834 9.61994 14.1834 8.19336ZM4.8501 8.19336C4.8501 9.6097 5.439 10.8885 6.38529 11.7982C6.04148 11.9748 5.80086 12.3239 5.77784 12.7313C5.40405 12.9128 5.1464 13.2959 5.1464 13.7395C5.1464 14.3583 5.64801 14.8599 6.26677 14.8599H13.5075C14.1263 14.8599 14.6279 14.3583 14.6279 13.7395C14.6279 13.2959 14.3702 12.9128 13.9964 12.7313C13.9723 12.3047 13.7096 11.9419 13.3396 11.7744C14.2714 10.8662 14.8501 9.59736 14.8501 8.19336C14.8501 5.43194 12.6115 3.19336 9.8501 3.19336C7.08867 3.19336 4.8501 5.43194 4.8501 8.19336ZM6.8964 12.3418C6.64583 12.3418 6.4427 12.5449 6.4427 12.7955C6.4427 12.8295 6.44637 12.8622 6.45321 12.8934L6.52741 13.232L6.18616 13.2929C5.97407 13.3307 5.81307 13.5167 5.81307 13.7395C5.81307 13.9901 6.0162 14.1932 6.26677 14.1932H13.5075C13.7581 14.1932 13.9612 13.9901 13.9612 13.7395C13.9612 13.5167 13.8002 13.3307 13.5881 13.2929L13.2469 13.232L13.3211 12.8934C13.3279 12.8622 13.3316 12.8295 13.3316 12.7955C13.3316 12.5449 13.1285 12.3418 12.8779 12.3418H6.8964ZM8.18343 7.19336C8.55162 7.19336 8.8501 6.89488 8.8501 6.52669C8.8501 6.1585 8.55162 5.86003 8.18343 5.86003C7.81524 5.86003 7.51676 6.1585 7.51676 6.52669C7.51676 6.89488 7.81524 7.19336 8.18343 7.19336Z" fill="white"/>
</svg>
