<svg width="18" height="19" viewBox="0 0 18 19" fill="none" xmlns="http://www.w3.org/2000/svg">
<rect y="0.679688" width="18" height="18" rx="4" fill="#333333"/>
<g clip-path="url(#clip0_24391_19550)">
<path fill-rule="evenodd" clip-rule="evenodd" d="M12.7756 5.92643C12.4372 5.58822 11.8887 5.58831 11.5504 5.92663L9.81322 7.66376L11.0387 8.88922L12.7758 7.15209C13.1143 6.81361 13.1142 6.2648 12.7756 5.92643ZM11.5101 9.36062L13.2472 7.62349C13.8461 7.02461 13.8459 6.05357 13.2469 5.45487C12.6481 4.85645 11.6776 4.85661 11.0789 5.45522L9.34182 7.19236L8.52932 6.37986L8.05792 6.85126L8.84561 7.63896L4.70865 11.7759C4.57245 11.9121 4.47848 12.0848 4.43804 12.2731L4.22446 13.2677C4.07209 13.9773 4.70256 14.6077 5.41212 14.4554L6.40676 14.2418C6.59508 14.2013 6.76771 14.1074 6.90391 13.9712L11.0409 9.83422L11.8292 10.6225L12.3006 10.1511L11.5101 9.36062ZM10.5695 9.36281L9.31701 8.11036L5.18005 12.2473C5.13465 12.2927 5.10333 12.3503 5.08985 12.413L4.87627 13.4077C4.82548 13.6442 5.03563 13.8544 5.27215 13.8036L6.26679 13.59C6.32956 13.5765 6.38711 13.5452 6.43251 13.4998L10.5695 9.36281Z" fill="white"/>
</g>
<defs>
<clipPath id="clip0_24391_19550">
<rect width="12" height="12" fill="white" transform="translate(3 3.67969)"/>
</clipPath>
</defs>
</svg>
