<svg width="19" height="19" viewBox="0 0 19 19" fill="none" xmlns="http://www.w3.org/2000/svg">
<rect x="0.516602" y="0.193359" width="18" height="18" rx="4" fill="#333333"/>
<path fill-rule="evenodd" clip-rule="evenodd" d="M12.1828 11.8599V13.1933H6.18278L6.18278 5.19328L12.1828 5.19328V6.52661H12.8494V5.19328C12.8494 4.82509 12.551 4.52661 12.1828 4.52661H6.18278C5.81459 4.52661 5.51611 4.82509 5.51611 5.19328L5.51611 13.1933C5.51611 13.5615 5.81459 13.8599 6.18278 13.8599H12.1828C12.551 13.8599 12.8494 13.5615 12.8494 13.1933V11.8599H12.1828ZM12.1826 8.85994V7.52661H12.8493V8.85994H14.1823V9.52661H12.8493V10.8599H12.1826V9.52661H10.8489L10.8489 8.85994H12.1826Z" fill="white"/>
</svg>
