<svg width="19" height="19" viewBox="0 0 19 19" fill="none" xmlns="http://www.w3.org/2000/svg">
<rect x="0.516602" y="0.193359" width="18" height="18" rx="4" fill="#333333"/>
<path fill-rule="evenodd" clip-rule="evenodd" d="M12.8499 5.19328L12.8499 13.1933H6.18327L6.18327 5.19328L12.8499 5.19328ZM12.8499 4.52661C13.2181 4.52661 13.5166 4.82509 13.5166 5.19328V13.1933C13.5166 13.5615 13.2181 13.8599 12.8499 13.8599H6.18327C5.81508 13.8599 5.5166 13.5615 5.5166 13.1933V5.19328C5.5166 4.82509 5.81508 4.52661 6.18327 4.52661H12.8499ZM10.8499 7.19328L10.8499 11.1933L8.18327 11.1933L8.18327 7.19328L10.8499 7.19328ZM7.5166 6.52661L11.5166 6.52661V11.8599H7.5166L7.5166 6.52661Z" fill="white"/>
</svg>
