<svg width="19" height="19" viewBox="0 0 19 19" fill="none" xmlns="http://www.w3.org/2000/svg">
<rect x="0.516602" y="0.193359" width="18" height="18" rx="4" fill="#333333"/>
<path fill-rule="evenodd" clip-rule="evenodd" d="M11.2663 6.41542H13.5996V8.08209H11.2663V6.41542ZM10.6829 6.41542H8.34961V8.08209H10.6829V6.41542ZM7.76628 6.41542H5.43294V8.08209H7.76628V6.41542ZM5.43294 8.63764V11.971H7.76628L7.76628 8.63764H5.43294ZM8.34961 12.5265H7.76628H5.43294C5.11078 12.5265 4.84961 12.2778 4.84961 11.971V6.41542C4.84961 6.10859 5.11078 5.85986 5.43294 5.85986H13.5996C13.9218 5.85986 14.1829 6.10859 14.1829 6.41542V11.971C14.1829 12.2778 13.9218 12.5265 13.5996 12.5265H11.2663H10.6829H8.34961ZM10.6829 11.971H8.34961L8.34961 8.63764H10.6829L10.6829 11.971ZM11.2663 11.971H13.5996V8.63764H11.2663L11.2663 11.971Z" fill="white"/>
</svg>
