<svg width="19" height="19" viewBox="0 0 19 19" fill="none" xmlns="http://www.w3.org/2000/svg">
<rect x="0.516602" y="0.193359" width="18" height="18" rx="4" fill="#333333"/>
<path fill-rule="evenodd" clip-rule="evenodd" d="M6.66016 4.19336H7.37444V4.90758H11.6602V4.19336H12.3744V4.90758C13.5576 4.90796 14.5166 5.8672 14.5166 7.05044V7.76491V8.4792V12.0504C14.5166 13.2339 13.5572 14.1933 12.3737 14.1933H6.65946C5.47599 14.1933 4.5166 13.2339 4.5166 12.0504V8.4792V7.76491V7.05044C4.5166 5.86697 5.47599 4.90758 6.65946 4.90758H6.66016V4.19336ZM6.66016 5.62187H6.65946C5.87048 5.62187 5.23089 6.26146 5.23089 7.05044V7.76491H13.8023V7.05044C13.8023 6.26169 13.1631 5.62224 12.3744 5.62187V7.0505H11.6602V5.62187H7.37444V7.0505H6.66016V5.62187ZM13.8023 8.4792H5.23089V12.0504C5.23089 12.8394 5.87048 13.479 6.65946 13.479H12.3737C13.1627 13.479 13.8023 12.8394 13.8023 12.0504V8.4792Z" fill="white"/>
</svg>
