<svg width="19" height="19" viewBox="0 0 19 19" fill="none" xmlns="http://www.w3.org/2000/svg">
<rect x="0.516602" y="0.193359" width="18" height="18" rx="4" fill="#333333"/>
<path fill-rule="evenodd" clip-rule="evenodd" d="M7.18359 6.01555C7.18359 5.0828 7.93974 4.32666 8.87248 4.32666C9.80523 4.32666 10.5614 5.0828 10.5614 6.01555V11.2378C10.5614 11.8146 10.0938 12.2822 9.51693 12.2822C8.9401 12.2822 8.47248 11.8146 8.47248 11.2378V7.32666H9.13915V11.2378C9.13915 11.4464 9.30829 11.6156 9.51693 11.6156C9.72557 11.6156 9.89471 11.4464 9.89471 11.2378V6.01555C9.89471 5.45099 9.43704 4.99333 8.87248 4.99333C8.30792 4.99333 7.85026 5.45099 7.85026 6.01555V11.7267C7.85026 12.6471 8.59645 13.3933 9.51693 13.3933C10.4374 13.3933 11.1836 12.6471 11.1836 11.7267V7.32666H11.8503V11.7267C11.8503 13.0153 10.8056 14.06 9.51693 14.06C8.22826 14.06 7.18359 13.0153 7.18359 11.7267V6.01555Z" fill="white"/>
</svg>
