<svg width="19" height="19" viewBox="0 0 19 19" fill="none" xmlns="http://www.w3.org/2000/svg">
<rect x="0.516602" y="0.193359" width="18" height="18" rx="4" fill="#333333"/>
<path fill-rule="evenodd" clip-rule="evenodd" d="M7.51595 5.73268L5.70054 6.64038C5.58761 6.69685 5.51628 6.81227 5.51628 6.93853V12.1145C5.51628 12.3623 5.77705 12.5234 5.99868 12.4126L7.43277 11.6956C7.46004 11.6819 7.4878 11.6696 7.51595 11.6586V5.73268ZM8.18262 11.6369C8.20574 11.6442 8.22868 11.6525 8.25137 11.6615L10.8499 12.701V6.74944C10.8268 6.7421 10.8039 6.73389 10.7812 6.72481L8.18262 5.68538V11.6369ZM11.5166 6.72772V12.6537L13.332 11.746C13.4449 11.6895 13.5163 11.5741 13.5163 11.4478V6.27186C13.5163 6.02406 13.2555 5.8629 13.0339 5.97372L11.5998 6.69076C11.5725 6.7044 11.5448 6.71672 11.5166 6.72772ZM8.25137 4.99486C7.98616 4.88878 7.68825 4.90117 7.43277 5.02891L5.4024 6.0441C5.06361 6.21349 4.84961 6.55975 4.84961 6.93853V12.1145C4.84961 12.8579 5.63192 13.3414 6.29682 13.0089L7.73091 12.2919C7.81607 12.2493 7.91537 12.2452 8.00378 12.2805L10.7812 13.3915C11.0464 13.4976 11.3443 13.4852 11.5998 13.3574L13.6302 12.3422C13.9689 12.1728 14.1829 11.8266 14.1829 11.4478V6.27186C14.1829 5.52848 13.4006 5.04498 12.7357 5.37743L11.3016 6.09448C11.2165 6.13706 11.1172 6.14119 11.0288 6.10582L8.25137 4.99486Z" fill="white"/>
</svg>
