<svg width="19" height="19" viewBox="0 0 19 19" fill="none" xmlns="http://www.w3.org/2000/svg">
<rect x="0.516602" y="0.193359" width="18" height="18" rx="4" fill="#333333"/>
<path fill-rule="evenodd" clip-rule="evenodd" d="M5.51628 5.86003H8.18294V12.5267H5.51628L5.51628 5.86003ZM4.84961 5.86003C4.84961 5.49184 5.14809 5.19336 5.51628 5.19336H8.18294C8.55113 5.19336 8.84961 5.49184 8.84961 5.86003V12.5267C8.84961 12.8949 8.55113 13.1934 8.18294 13.1934H5.51628C5.14809 13.1934 4.84961 12.8949 4.84961 12.5267V5.86003ZM10.8493 5.86003H13.516V12.5267H10.8493L10.8493 5.86003ZM10.1826 5.86003C10.1826 5.49184 10.4811 5.19336 10.8493 5.19336H13.516C13.8841 5.19336 14.1826 5.49184 14.1826 5.86003V12.5267C14.1826 12.8949 13.8841 13.1934 13.516 13.1934H10.8493C10.4811 13.1934 10.1826 12.8949 10.1826 12.5267V5.86003Z" fill="white"/>
</svg>
