<svg width="19" height="19" viewBox="0 0 19 19" fill="none" xmlns="http://www.w3.org/2000/svg">
<rect x="0.516602" y="0.193359" width="18" height="18" rx="4" fill="#333333"/>
<mask id="mask0_23359_134495" style="mask-type:alpha" maskUnits="userSpaceOnUse" x="3" y="3" width="13" height="13">
<rect x="3.5166" y="3.19336" width="12" height="12" fill="#D9D9D9"/>
</mask>
<g mask="url(#mask0_23359_134495)">
<path d="M3.55469 10.6168V7.77051H4.15081V8.77051H5.30469V7.77051H5.90081V10.6168H5.30469V9.36676H4.15081V10.6168H3.55469ZM7.42969 10.6168V8.36676H6.50656V7.77051H8.94881V8.36676H8.02581V10.6168H7.42969ZM9.55469 10.6168V8.21288C9.55469 8.08755 9.59706 7.98251 9.68181 7.89776C9.76656 7.81292 9.8716 7.77051 9.99694 7.77051H12.2084C12.3338 7.77051 12.4389 7.81292 12.5237 7.89776C12.6084 7.98251 12.6508 8.08755 12.6508 8.21288V10.6168H12.0547V8.36676H11.4008V10.1168H10.8047V8.36676H10.1508V10.6168H9.55469ZM13.5739 10.6168V7.77051H14.1701V10.0205H15.4777V10.6168H13.5739Z" fill="white"/>
</g>
</svg>
