<svg width="19" height="19" viewBox="0 0 19 19" fill="none" xmlns="http://www.w3.org/2000/svg">
<rect x="0.516602" y="0.193359" width="18" height="18" rx="4" fill="#333333"/>
<path fill-rule="evenodd" clip-rule="evenodd" d="M10.8494 12.0273C9.67443 12.6198 8.20427 12.4254 7.22302 11.4442C6.60636 10.8275 6.1698 9.87798 5.89271 8.65907C5.68876 7.76191 5.57882 6.75297 5.53551 5.68828L7.81811 7.97088C7.69918 8.17038 7.63086 8.40354 7.63086 8.65267C7.63086 9.38905 8.22781 9.986 8.96419 9.986C9.70057 9.986 10.2975 9.38905 10.2975 8.65267C10.2975 7.91629 9.70057 7.31934 8.96419 7.31934C8.71878 7.31934 8.48885 7.38564 8.29135 7.50131L6.05493 5.26489C6.86239 5.32479 7.75181 5.44465 8.60185 5.6396C9.93421 5.94515 11.0506 6.40896 11.6544 7.01277C12.5826 7.94097 12.8067 9.30663 12.3268 10.4461L12.8287 10.948C12.84 10.9257 12.851 10.9033 12.8619 10.8809C12.8511 10.9032 12.8401 10.9254 12.8289 10.9475L13.2448 11.3635L11.7155 12.8928L11.3416 12.5189C11.3415 12.5189 11.3413 12.519 11.3412 12.5191L10.8494 12.0273ZM10.6956 12.8156C9.36103 13.2821 7.81818 12.9821 6.75161 11.9156C5.37751 10.5415 4.91485 7.98161 4.85387 5.21793C4.84899 4.99685 4.84668 4.77446 4.84668 4.55127H4.84701C5.05713 4.55127 5.28028 4.55594 5.51335 4.56568C7.70909 4.65744 10.7843 5.19981 12.1258 6.54137C13.1354 7.55099 13.4582 8.9874 13.094 10.2699C13.094 10.2699 13.094 10.2699 13.094 10.2699L14.1876 11.3635L11.7155 13.8356L10.6956 12.8156ZM9.63086 8.65267C9.63086 9.02086 9.33238 9.31934 8.96419 9.31934C8.596 9.31934 8.29753 9.02086 8.29753 8.65267C8.29753 8.28448 8.596 7.986 8.96419 7.986C9.33238 7.986 9.63086 8.28448 9.63086 8.65267Z" fill="white"/>
</svg>
