<svg width="19" height="19" viewBox="0 0 19 19" fill="none" xmlns="http://www.w3.org/2000/svg">
<rect x="0.516602" y="0.193359" width="18" height="18" rx="4" fill="#333333"/>
<path fill-rule="evenodd" clip-rule="evenodd" d="M5.69938 5.86003H13.3345C13.8034 5.86003 14.1836 6.24019 14.1836 6.70915V8.47631L13.1325 7.58983C12.5634 7.1099 11.7211 7.14761 11.1972 7.67647L9.81511 9.07169C9.59668 9.29219 9.26627 9.35804 8.98 9.23811L8.59087 9.0751C8.07389 8.85854 7.47803 8.96442 7.06732 9.34583L4.85026 11.4047V6.70915C4.85026 6.24019 5.23042 5.86003 5.69938 5.86003ZM4.99917 12.158C5.15225 12.3807 5.40876 12.5267 5.69938 12.5267H13.3345C13.8034 12.5267 14.1836 12.1465 14.1836 11.6776V9.34842L12.7027 8.09945C12.3993 7.84357 11.9502 7.86367 11.6709 8.14565L10.2887 9.54087C9.87905 9.95444 9.25934 10.0779 8.72241 9.85301L8.33328 9.69C8.05765 9.57453 7.73995 9.63098 7.52097 9.83434L5.07676 12.1041C5.05297 12.1262 5.02681 12.1442 4.99917 12.158ZM4.18359 6.70915C4.18359 5.872 4.86224 5.19336 5.69938 5.19336H13.3345C14.1716 5.19336 14.8503 5.872 14.8503 6.70915V11.6776C14.8503 12.5147 14.1716 13.1934 13.3345 13.1934H5.69938C4.86224 13.1934 4.18359 12.5147 4.18359 11.6776V6.70915ZM6.5166 7.86019C6.7007 7.86019 6.84994 7.71095 6.84994 7.52686C6.84994 7.34276 6.7007 7.19352 6.5166 7.19352C6.33251 7.19352 6.18327 7.34276 6.18327 7.52686C6.18327 7.71095 6.33251 7.86019 6.5166 7.86019ZM6.5166 8.52686C7.06889 8.52686 7.5166 8.07914 7.5166 7.52686C7.5166 6.97457 7.06889 6.52686 6.5166 6.52686C5.96432 6.52686 5.5166 6.97457 5.5166 7.52686C5.5166 8.07914 5.96432 8.52686 6.5166 8.52686Z" fill="white"/>
</svg>
