<svg width="18" height="19" viewBox="0 0 18 19" fill="none" xmlns="http://www.w3.org/2000/svg">
<rect y="0.429688" width="18" height="18" rx="4" fill="#333333"/>
<path fill-rule="evenodd" clip-rule="evenodd" d="M5.00016 6.76318V5.42985H7.66683V6.76318L5.00016 6.76318ZM6.00016 7.42985H4.3335L4.3335 4.76318L8.3335 4.76318V7.42985H6.66683V8.42985H9.66683V7.42985L13.6668 7.42985V10.0965L9.66683 10.0965V9.09652H6.66683V12.4299L9.66683 12.4299V11.4299L13.6668 11.4299V14.0965H9.66683V13.0965H6.00016L6.00016 12.4299L6.00016 9.09652V8.42985V7.42985ZM10.3335 13.4299V12.0965H13.0002V13.4299H10.3335ZM10.3335 8.09652V9.42985L13.0002 9.42985V8.09652L10.3335 8.09652Z" fill="white"/>
</svg>
