<svg width="19" height="19" viewBox="0 0 19 19" fill="none" xmlns="http://www.w3.org/2000/svg">
<rect x="0.516602" y="0.193359" width="18" height="18" rx="4" fill="#333333"/>
<g clip-path="url(#clip0_23359_134466)">
<path fill-rule="evenodd" clip-rule="evenodd" d="M10.5461 4.82601C11.4677 3.90437 12.962 3.90437 13.8836 4.82601C14.8053 5.74766 14.8053 7.24194 13.8836 8.16359L11.7971 10.2501C10.8706 11.1766 9.36847 11.1766 8.44197 10.2501L8.91337 9.7787C9.57952 10.4448 10.6596 10.4448 11.3257 9.7787L13.4122 7.69218C14.0735 7.03089 14.0735 5.95871 13.4122 5.29742C12.7509 4.63612 11.6788 4.63612 11.0175 5.29742L9.62143 6.69345L9.15003 6.22204L10.5461 4.82601Z" fill="white"/>
<path fill-rule="evenodd" clip-rule="evenodd" d="M8.48715 13.5607C7.5655 14.4824 6.07122 14.4824 5.14957 13.5607C4.22793 12.6391 4.22793 11.1448 5.14957 10.2231L7.23609 8.13662C8.16259 7.21012 9.66474 7.21012 10.5912 8.13662L10.1198 8.60802C9.45368 7.94187 8.37364 7.94187 7.70749 8.60802L5.62098 10.6945C4.95968 11.3558 4.95968 12.428 5.62098 13.0893C6.28227 13.7506 7.35445 13.7506 8.01574 13.0893L9.41177 11.6933L9.88318 12.1647L8.48715 13.5607Z" fill="white"/>
</g>
<defs>
<clipPath id="clip0_23359_134466">
<rect width="12" height="12" fill="white" transform="translate(3.5166 3.19336)"/>
</clipPath>
</defs>
</svg>
