<svg width="19" height="19" viewBox="0 0 19 19" fill="none" xmlns="http://www.w3.org/2000/svg">
<rect x="0.516602" y="0.193359" width="18" height="18" rx="4" fill="#333333"/>
<path fill-rule="evenodd" clip-rule="evenodd" d="M4.85026 13.8602L6.51693 11.7063H12.8503C13.5866 11.7063 14.1836 11.1094 14.1836 10.373V5.86019C14.1836 5.12381 13.5866 4.52686 12.8503 4.52686H6.18359C5.44722 4.52686 4.85026 5.12381 4.85026 5.86019V13.8602ZM5.51693 5.86019V11.9093L6.18985 11.0397H12.8503C13.2185 11.0397 13.5169 10.7412 13.5169 10.373V5.86019C13.5169 5.492 13.2184 5.19352 12.8503 5.19352H6.18359C5.8154 5.19352 5.51693 5.492 5.51693 5.86019ZM9.83347 8.84567L9.94613 5.87012H9.0708L9.18347 8.84567H9.83347ZM9.99813 10.0417V9.42345H9.03613V10.0417H9.99813Z" fill="white"/>
</svg>
