<svg width="19" height="19" viewBox="0 0 19 19" fill="none" xmlns="http://www.w3.org/2000/svg">
<rect x="0.516602" y="0.193359" width="18" height="18" rx="4" fill="#333333"/>
<path fill-rule="evenodd" clip-rule="evenodd" d="M13.5163 5.19352H5.51628V13.1935H13.5163V5.19352ZM4.84961 4.52686V13.8602H14.1829V4.52686H4.84961ZM10.4381 8.53402H9.13006L8.64238 9.87223H9.95041L10.4381 8.53402ZM10.681 7.86735H9.373L9.82129 6.63721L9.19492 6.40895L8.66345 7.86735H6.84766V8.53402H8.4205L7.93283 9.87223H6.84766V10.5389H7.68988L7.24222 11.7673L7.86859 11.9956L8.39944 10.5389H9.70746L9.25979 11.7673L9.88616 11.9956L10.417 10.5389H12.1816V9.87223H10.66L11.1476 8.53402H12.1816V7.86735H11.3906L11.8389 6.63721L11.2125 6.40895L10.681 7.86735Z" fill="white"/>
</svg>
