<?xml version="1.0" encoding="UTF-8" standalone="no"?>
<svg
   width="19"
   height="19"
   viewBox="0 0 19 19"
   fill="none"
   version="1.1"
   id="svg1"
   sodipodi:docname="page.svg"
   inkscape:version="1.4 (e7c3feb1, 2024-10-09)"
   xmlns:inkscape="http://www.inkscape.org/namespaces/inkscape"
   xmlns:sodipodi="http://sodipodi.sourceforge.net/DTD/sodipodi-0.dtd"
   xmlns="http://www.w3.org/2000/svg"
   xmlns:svg="http://www.w3.org/2000/svg">
  <defs
     id="defs1" />
  <sodipodi:namedview
     id="namedview1"
     pagecolor="#ffffff"
     bordercolor="#000000"
     borderopacity="0.25"
     inkscape:showpageshadow="2"
     inkscape:pageopacity="0.0"
     inkscape:pagecheckerboard="0"
     inkscape:deskcolor="#d1d1d1"
     inkscape:zoom="37.551092"
     inkscape:cx="10.345904"
     inkscape:cy="12.702693"
     inkscape:window-width="1712"
     inkscape:window-height="1371"
     inkscape:window-x="1725"
     inkscape:window-y="34"
     inkscape:window-maximized="0"
     inkscape:current-layer="svg1" />
  <rect
     x="0.516602"
     y="0.193359"
     width="18"
     height="18"
     rx="4"
     fill="#333333"
     id="rect1" />
  <path
     d="m 10.51611,4.1933 v 2 c 0,0.26522 0.10536,0.51957 0.29289,0.70711 0.18754,0.18753 0.44189,0.29289 0.70711,0.29289 h 2 m -2.5,-3 h -4.5 C 6.25089,4.1933 5.99654,4.29866 5.809,4.48619 5.62147,4.67373 5.51611,4.92808 5.51611,5.1933 v 8 c 0,0.2652 0.10536,0.5196 0.29289,0.7071 0.18754,0.1875 0.44189,0.2929 0.70711,0.2929 h 6 c 0.26522,0 0.51957,-0.1054 0.70711,-0.2929 0.18753,-0.1875 0.29289,-0.4419 0.29289,-0.7071 v -6.5 z"
     stroke="#000000"
     stroke-linecap="round"
     stroke-linejoin="round"
     id="path1-0"
     style="stroke:#ffffff" />
</svg>
