<svg width="19" height="19" viewBox="0 0 19 19" fill="none" xmlns="http://www.w3.org/2000/svg">
<rect x="0.516602" y="0.193359" width="18" height="18" rx="4" fill="#333333"/>
<path fill-rule="evenodd" clip-rule="evenodd" d="M13.5163 9.19352C13.5163 11.4027 11.7254 13.1935 9.51628 13.1935C7.30714 13.1935 5.51628 11.4027 5.51628 9.19352C5.51628 6.98438 7.30714 5.19352 9.51628 5.19352C11.7254 5.19352 13.5163 6.98438 13.5163 9.19352ZM14.1829 9.19352C14.1829 11.7709 12.0936 13.8602 9.51628 13.8602C6.93895 13.8602 4.84961 11.7709 4.84961 9.19352C4.84961 6.61619 6.93895 4.52686 9.51628 4.52686C12.0936 4.52686 14.1829 6.61619 14.1829 9.19352ZM9.51595 10.527C10.2523 10.527 10.8493 9.93006 10.8493 9.19369C10.8493 8.45731 10.2523 7.86035 9.51595 7.86035C8.77957 7.86035 8.18262 8.45731 8.18262 9.19369C8.18262 9.93006 8.77957 10.527 9.51595 10.527Z" fill="white"/>
</svg>
