<svg width="19" height="19" viewBox="0 0 19 19" fill="none" xmlns="http://www.w3.org/2000/svg">
<rect x="0.516602" y="0.193359" width="18" height="18" rx="4" fill="#333333"/>
<path fill-rule="evenodd" clip-rule="evenodd" d="M13.5163 5.86003H5.51628V12.5267H13.5163V5.86003ZM5.51628 5.19336C5.14809 5.19336 4.84961 5.49184 4.84961 5.86003V12.5267C4.84961 12.8949 5.14809 13.1934 5.51628 13.1934H13.5163C13.8845 13.1934 14.1829 12.8949 14.1829 12.5267V5.86003C14.1829 5.49184 13.8845 5.19336 13.5163 5.19336H5.51628ZM6.84961 7.19336H9.51628V7.86003H6.84961V7.19336ZM7.51628 10.5267V9.86003H11.5163V10.5267H7.51628ZM6.84961 11.1934V9.19336H12.1829V11.1934H6.84961Z" fill="white"/>
</svg>
