<svg width="19" height="19" viewBox="0 0 19 19" fill="none" xmlns="http://www.w3.org/2000/svg">
<rect x="18.5166" y="0.193359" width="18" height="18" rx="4" transform="rotate(90 18.5166 0.193359)" fill="#333333"/>
<path fill-rule="evenodd" clip-rule="evenodd" d="M13.5166 7.19336L13.5166 6.52669L10.1499 6.52669C9.99551 5.76595 9.32292 5.19336 8.5166 5.19336C7.71028 5.19336 7.0377 5.76595 6.88327 6.52669L5.5166 6.52669L5.5166 7.19336L6.88327 7.19336C7.0377 7.95411 7.71028 8.52669 8.5166 8.52669C9.32292 8.52669 9.99551 7.95411 10.1499 7.19336L13.5166 7.19336ZM8.5166 7.86003C7.96432 7.86003 7.5166 7.41231 7.5166 6.86003C7.5166 6.30774 7.96432 5.86003 8.5166 5.86003C9.06889 5.86003 9.5166 6.30774 9.5166 6.86003C9.5166 7.41231 9.06889 7.86003 8.5166 7.86003ZM8.88327 11.1934L5.5166 11.1934L5.5166 11.86L8.88327 11.86C9.0377 12.6208 9.71028 13.1934 10.5166 13.1934C11.3229 13.1934 11.9955 12.6208 12.1499 11.86L13.5166 11.86L13.5166 11.1934L12.1499 11.1934C11.9955 10.4326 11.3229 9.86003 10.5166 9.86003C9.71028 9.86003 9.0377 10.4326 8.88327 11.1934ZM9.5166 11.5267C9.5166 12.079 9.96432 12.5267 10.5166 12.5267C11.0689 12.5267 11.5166 12.079 11.5166 11.5267C11.5166 10.9744 11.0689 10.5267 10.5166 10.5267C9.96432 10.5267 9.5166 10.9744 9.5166 11.5267Z" fill="white"/>
</svg>
