<svg width="19" height="19" viewBox="0 0 19 19" fill="none" xmlns="http://www.w3.org/2000/svg">
<rect x="0.516602" y="0.193359" width="18" height="18" rx="4" fill="#333333"/>
<path fill-rule="evenodd" clip-rule="evenodd" d="M9.18262 4.52661H9.84928V7.19328H12.1829C13.2875 7.19328 14.1829 8.08871 14.1829 9.19328C14.1829 10.2978 13.2875 11.1933 12.1829 11.1933H9.84928V13.8599H9.18262V11.1933H6.84961C5.74504 11.1933 4.84961 10.2978 4.84961 9.19328C4.84961 8.08871 5.74504 7.19328 6.84961 7.19328H9.18262V4.52661ZM6.84961 7.85994H12.1829C12.9193 7.85994 13.5163 8.4569 13.5163 9.19328C13.5163 9.92966 12.9193 10.5266 12.1829 10.5266H6.84961C6.11323 10.5266 5.51628 9.92966 5.51628 9.19328C5.51628 8.4569 6.11323 7.85994 6.84961 7.85994Z" fill="white"/>
</svg>
