<svg width="19" height="19" viewBox="0 0 19 19" fill="none" xmlns="http://www.w3.org/2000/svg">
<rect x="0.516602" y="0.193359" width="18" height="18" rx="4" fill="#333333"/>
<path fill-rule="evenodd" clip-rule="evenodd" d="M13.1166 4.77089H5.9166C5.4625 4.77089 5.09438 5.13902 5.09438 5.59312C5.09438 6.04722 5.4625 6.41534 5.9166 6.41534H13.1166C13.5707 6.41534 13.9388 6.04722 13.9388 5.59312C13.9388 5.13902 13.5707 4.77089 13.1166 4.77089ZM5.9166 4.19312C5.1434 4.19312 4.5166 4.81992 4.5166 5.59312C4.5166 6.36632 5.1434 6.99312 5.9166 6.99312H6.82767V7.79286H5.9166C5.1434 7.79286 4.5166 8.41966 4.5166 9.19286C4.5166 9.96606 5.1434 10.5929 5.9166 10.5929H6.91645V11.3935H5.9166C5.1434 11.3935 4.5166 12.0203 4.5166 12.7935C4.5166 13.5667 5.1434 14.1935 5.9166 14.1935H13.1166C13.8898 14.1935 14.5166 13.5667 14.5166 12.7935C14.5166 12.0203 13.8898 11.3935 13.1166 11.3935H7.49423V10.5929H11.1166C11.8898 10.5929 12.5166 9.96606 12.5166 9.19286C12.5166 8.41966 11.8898 7.79286 11.1166 7.79286H7.40545V6.99312H13.1166C13.8898 6.99312 14.5166 6.36632 14.5166 5.59312C14.5166 4.81992 13.8898 4.19312 13.1166 4.19312H5.9166ZM11.1166 8.37064H5.9166C5.4625 8.37064 5.09438 8.73876 5.09438 9.19286C5.09438 9.64696 5.4625 10.0151 5.9166 10.0151H11.1166C11.5707 10.0151 11.9388 9.64696 11.9388 9.19286C11.9388 8.73876 11.5707 8.37064 11.1166 8.37064ZM5.9166 11.9713H13.1166C13.5707 11.9713 13.9388 12.3394 13.9388 12.7935C13.9388 13.2476 13.5707 13.6157 13.1166 13.6157H5.9166C5.4625 13.6157 5.09438 13.2476 5.09438 12.7935C5.09438 12.3394 5.4625 11.9713 5.9166 11.9713Z" fill="white"/>
</svg>
