<svg width="19" height="19" viewBox="0 0 19 19" fill="none" xmlns="http://www.w3.org/2000/svg">
<rect x="0.516602" y="0.193359" width="18" height="18" rx="4" fill="#333333"/>
<path fill-rule="evenodd" clip-rule="evenodd" d="M8.18294 6.52653H10.8496C12.3224 6.52653 13.5163 7.72044 13.5163 9.1932C13.5163 10.666 12.3224 11.8599 10.8496 11.8599H8.18294C6.71018 11.8599 5.51628 10.666 5.51628 9.1932C5.51628 7.72044 6.71018 6.52653 8.18294 6.52653ZM4.84961 9.1932C4.84961 7.35225 6.34199 5.85986 8.18294 5.85986H10.8496C12.6906 5.85986 14.1829 7.35225 14.1829 9.1932C14.1829 11.0341 12.6906 12.5265 10.8496 12.5265H8.18294C6.34199 12.5265 4.84961 11.0341 4.84961 9.1932ZM9.51595 9.19336C9.51595 9.92974 8.919 10.5267 8.18262 10.5267C7.44624 10.5267 6.84928 9.92974 6.84928 9.19336C6.84928 8.45698 7.44624 7.86003 8.18262 7.86003C8.919 7.86003 9.51595 8.45698 9.51595 9.19336ZM10.1826 9.19336C10.1826 10.2979 9.28719 11.1934 8.18262 11.1934C7.07805 11.1934 6.18262 10.2979 6.18262 9.19336C6.18262 8.08879 7.07805 7.19336 8.18262 7.19336C9.28719 7.19336 10.1826 8.08879 10.1826 9.19336Z" fill="white"/>
</svg>
