<svg width="19" height="19" viewBox="0 0 19 19" fill="none" xmlns="http://www.w3.org/2000/svg">
<rect x="0.516602" y="0.193359" width="18" height="18" rx="4" fill="#333333"/>
<path fill-rule="evenodd" clip-rule="evenodd" d="M14.8507 13.1933V12.1933L14.8508 5.52661V4.52661L13.8508 4.52661L5.18408 4.52661L4.18408 4.52661L4.18408 5.52661L4.18408 5.78534L4.18408 7.4155L4.18408 12.1933L4.18408 13.1933H5.18408L13.8507 13.1933H14.8507ZM5.18408 5.52661L13.8508 5.52661L13.8507 12.1933L5.18408 12.1933L5.18408 7.4155L5.18408 5.78534L5.18408 5.52661ZM12.8504 8.52677H6.18376V9.19344H12.8504V8.52677ZM6.18376 10.5268H10.8504V11.1934H6.18376V10.5268ZM12.8504 6.52677H6.18376V7.19344H12.8504V6.52677Z" fill="white"/>
</svg>
