<svg width="18" height="19" viewBox="0 0 18 19" fill="none" xmlns="http://www.w3.org/2000/svg">
<rect y="0.320312" width="18" height="18" rx="4" fill="#333333"/>
<path fill-rule="evenodd" clip-rule="evenodd" d="M13.0002 9.32048C13.0002 11.5296 11.2093 13.3205 9.00016 13.3205C6.79102 13.3205 5.00016 11.5296 5.00016 9.32048C5.00016 7.11134 6.79102 5.32048 9.00016 5.32048C11.2093 5.32048 13.0002 7.11134 13.0002 9.32048ZM13.6668 9.32048C13.6668 11.8978 11.5775 13.9871 9.00016 13.9871C6.42283 13.9871 4.3335 11.8978 4.3335 9.32048C4.3335 6.74315 6.42283 4.65381 9.00016 4.65381C11.5775 4.65381 13.6668 6.74315 13.6668 9.32048ZM9.3335 9.1824V6.65381H8.66683V9.45855L10.7645 11.5562L11.2359 11.0848L9.3335 9.1824Z" fill="white"/>
</svg>
