<svg width="19" height="19" viewBox="0 0 19 19" fill="none" xmlns="http://www.w3.org/2000/svg">
<rect x="0.516602" y="0.193359" width="18" height="18" rx="4" fill="#333333"/>
<path fill-rule="evenodd" clip-rule="evenodd" d="M8.18294 4.52661H10.8496V5.19328H8.18294V4.52661ZM12.8499 9.86011C12.8499 11.7011 11.3576 13.1934 9.5166 13.1934C7.67565 13.1934 6.18327 11.7011 6.18327 9.86011C6.18327 8.01916 7.67565 6.52677 9.5166 6.52677C11.3576 6.52677 12.8499 8.01916 12.8499 9.86011ZM13.5166 9.86011C13.5166 12.0692 11.7257 13.8601 9.5166 13.8601C7.30746 13.8601 5.5166 12.0692 5.5166 9.86011C5.5166 7.65097 7.30746 5.86011 9.5166 5.86011C10.422 5.86011 11.2572 6.16094 11.9276 6.6681L12.8499 5.7458L13.3213 6.2172L12.4248 7.11372C13.1016 7.83019 13.5166 8.79669 13.5166 9.86011ZM9.18099 7.87101L9.18099 10.5377H9.84766V7.87101H9.18099Z" fill="white"/>
</svg>
