<svg width="18" height="18" viewBox="0 0 18 18" fill="none" xmlns="http://www.w3.org/2000/svg">
<rect width="18" height="18" rx="4" fill="#A95EF8"/>
<g clip-path="url(#clip0_22821_15004)">
<path fill-rule="evenodd" clip-rule="evenodd" d="M7.66955 9.33341C7.69638 11.0736 7.93184 12.588 8.2771 13.4814C7.90148 13.2872 7.53319 12.9373 7.20864 12.418C6.72475 11.6438 6.39195 10.5635 6.34059 9.33341L7.66955 9.33341ZM8.3363 9.33341C8.35696 10.6319 8.49723 11.7814 8.70428 12.6096C8.79969 12.9913 8.90292 13.2784 9.00033 13.4736C9.09774 13.2784 9.20096 12.9913 9.29637 12.6096C9.50342 11.7814 9.64369 10.6319 9.66435 9.33341H8.3363ZM9.66435 8.66675L8.3363 8.66675C8.35696 7.36822 8.49723 6.21874 8.70428 5.39054C8.79969 5.00887 8.90291 4.72174 9.00033 4.52658C9.09774 4.72174 9.20096 5.00887 9.29637 5.39054C9.50342 6.21874 9.64369 7.36822 9.66435 8.66675ZM10.3311 9.33341C10.3043 11.0736 10.0688 12.588 9.72355 13.4814C10.0992 13.2872 10.4675 12.9373 10.792 12.418C11.2759 11.6438 11.6087 10.5635 11.6601 9.33342L10.3311 9.33341ZM11.6601 8.66675H10.3311C10.3043 6.92654 10.0688 5.41213 9.72355 4.51876C10.0992 4.71301 10.4675 5.0629 10.792 5.58218C11.2759 6.3564 11.6087 7.4367 11.6601 8.66675ZM12.3273 9.33342C12.2671 10.8941 11.7874 12.2733 11.0664 13.1856C12.5132 12.4701 13.5358 11.0264 13.6553 9.33342H12.3273ZM13.6553 8.66675H12.3273C12.2671 7.10601 11.7874 5.7269 11.0664 4.81455C12.5133 5.53011 13.5358 6.97376 13.6553 8.66675ZM7.66955 8.66675H6.34059C6.39195 7.4367 6.72475 6.3564 7.20864 5.58218C7.53318 5.0629 7.90148 4.71301 8.2771 4.51876C7.93183 5.41213 7.69638 6.92654 7.66955 8.66675ZM5.6734 8.66675C5.73355 7.10601 6.21323 5.7269 6.93423 4.81455C5.4874 5.5301 4.46486 6.97376 4.34538 8.66675H5.6734ZM4.34538 9.33341C4.46486 11.0264 5.4874 12.4701 6.93423 13.1856C6.21323 12.2733 5.73355 10.8941 5.6734 9.33341H4.34538ZM14.3337 9.00008C14.3337 6.05456 11.9458 3.66675 9.00033 3.66675C6.05481 3.66675 3.66699 6.05456 3.66699 9.00008C3.66699 11.9456 6.05481 14.3334 9.00033 14.3334C11.9458 14.3334 14.3337 11.9456 14.3337 9.00008Z" fill="white"/>
</g>
<defs>
<clipPath id="clip0_22821_15004">
<rect width="12" height="12" fill="white" transform="translate(3 3)"/>
</clipPath>
</defs>
</svg>
