<svg width="18" height="18" viewBox="0 0 18 18" fill="none" xmlns="http://www.w3.org/2000/svg">
<rect width="18" height="18" rx="4" fill="#333333"/>
<g clip-path="url(#clip0_22804_11297)">
<path fill-rule="evenodd" clip-rule="evenodd" d="M4.33366 13.6666L6.00033 11.5127H12.3337C13.07 11.5127 13.667 10.9158 13.667 10.1794V5.66659C13.667 4.93021 13.07 4.33325 12.3337 4.33325H5.66699C4.93061 4.33325 4.33366 4.93021 4.33366 5.66659V13.6666ZM5.00033 5.66659V11.7157L5.67325 10.8461H12.3337C12.7018 10.8461 13.0003 10.5476 13.0003 10.1794V5.66659C13.0003 5.2984 12.7018 4.99992 12.3337 4.99992H5.66699C5.2988 4.99992 5.00033 5.2984 5.00033 5.66659ZM9.33366 9.65356V8.32023H10.667V7.65356H9.33366V6.32023H8.66699V7.65356H7.33366V8.32023H8.66699V9.65356H9.33366Z" fill="white"/>
</g>
<defs>
<clipPath id="clip0_22804_11297">
<rect width="12" height="12" fill="white" transform="matrix(-1 0 0 1 15 3)"/>
</clipPath>
</defs>
</svg>
