<svg width="18" height="18" viewBox="0 0 18 18" fill="none" xmlns="http://www.w3.org/2000/svg">
<rect width="18" height="18" rx="4" fill="#A95EF8"/>
<path fill-rule="evenodd" clip-rule="evenodd" d="M5.66634 4.33325C4.92996 4.33325 4.33301 4.93021 4.33301 5.66659V6.99992C4.33301 7.7363 4.92996 8.33325 5.66634 8.33325H12.333C13.0694 8.33325 13.6663 7.7363 13.6663 6.99992V5.66659C13.6663 4.93021 13.0694 4.33325 12.333 4.33325H5.66634ZM5.66634 10.3333H12.333C12.7012 10.3333 12.9997 10.6317 12.9997 10.9999V12.3333C12.9997 12.7014 12.7012 12.9999 12.333 12.9999H5.66634C5.29815 12.9999 4.99967 12.7014 4.99967 12.3333V10.9999C4.99967 10.6317 5.29815 10.3333 5.66634 10.3333ZM4.33301 10.9999C4.33301 10.2635 4.92996 9.66658 5.66634 9.66658H12.333C13.0694 9.66658 13.6663 10.2635 13.6663 10.9999V12.3333C13.6663 13.0696 13.0694 13.6666 12.333 13.6666H5.66634C4.92996 13.6666 4.33301 13.0696 4.33301 12.3333V10.9999Z" fill="white"/>
</svg>
