<svg width="18" height="18" viewBox="0 0 18 18" fill="none" xmlns="http://www.w3.org/2000/svg">
<rect width="18" height="18" rx="4" fill="#A95EF8"/>
<path fill-rule="evenodd" clip-rule="evenodd" d="M8.2219 11.3333C9.94012 11.3333 11.333 9.94036 11.333 8.22214C11.333 6.50392 9.94012 5.11103 8.2219 5.11103C6.50368 5.11103 5.11079 6.50392 5.11079 8.22214C5.11079 9.94036 6.50368 11.3333 8.2219 11.3333ZM8.2219 12.111C9.09741 12.111 9.90535 11.8217 10.5553 11.3335L13.6663 14.4444L14.2163 13.8944L11.1281 10.8063C11.7394 10.1193 12.1108 9.21409 12.1108 8.22214C12.1108 6.07437 10.3697 4.33325 8.2219 4.33325C6.07412 4.33325 4.33301 6.07437 4.33301 8.22214C4.33301 10.3699 6.07412 12.111 8.2219 12.111ZM7.4149 6.74748L7.82738 7.15996L6.76517 8.22216L7.82738 9.28437L7.4149 9.69685L5.94021 8.22216L7.4149 6.74748ZM9.02965 6.74748L8.61718 7.15996L9.67938 8.22216L8.61718 9.28437L9.02965 9.69685L10.5043 8.22216L9.02965 6.74748Z" fill="white"/>
</svg>
