<svg width="18" height="18" viewBox="0 0 18 18" fill="none" xmlns="http://www.w3.org/2000/svg">
<rect width="18" height="18" rx="4" fill="#333333"/>
<path fill-rule="evenodd" clip-rule="evenodd" d="M7.07143 4.5H5.78571C5.07563 4.5 4.5 5.07563 4.5 5.78571V7.07143C4.5 7.78151 5.07563 8.35714 5.78571 8.35714H7.07143C7.78151 8.35714 8.35714 7.78151 8.35714 7.07143V5.78571C8.35714 5.07563 7.78151 4.5 7.07143 4.5ZM5.14286 5.78571C5.14286 5.43067 5.43067 5.14286 5.78571 5.14286H7.07143C7.42647 5.14286 7.71429 5.43067 7.71429 5.78571V7.07143C7.71429 7.42647 7.42647 7.71429 7.07143 7.71429H5.78571C5.43067 7.71429 5.14286 7.42647 5.14286 7.07143V5.78571ZM7.07143 9.64286H5.78571C5.07563 9.64286 4.5 10.2185 4.5 10.9286V12.2143C4.5 12.9244 5.07563 13.5 5.78571 13.5H7.07143C7.78151 13.5 8.35714 12.9244 8.35714 12.2143V10.9286C8.35714 10.2185 7.78151 9.64286 7.07143 9.64286ZM5.14286 10.9286C5.14286 10.5735 5.43067 10.2857 5.78571 10.2857H7.07143C7.42647 10.2857 7.71429 10.5735 7.71429 10.9286V12.2143C7.71429 12.5693 7.42647 12.8571 7.07143 12.8571H5.78571C5.43067 12.8571 5.14286 12.5693 5.14286 12.2143V10.9286ZM10.9286 4.5H12.2143C12.9244 4.5 13.5 5.07563 13.5 5.78571V7.07143C13.5 7.78151 12.9244 8.35714 12.2143 8.35714H10.9286C10.2185 8.35714 9.64286 7.78151 9.64286 7.07143V5.78571C9.64286 5.07563 10.2185 4.5 10.9286 4.5ZM10.9286 5.14286C10.5735 5.14286 10.2857 5.43067 10.2857 5.78571V7.07143C10.2857 7.42647 10.5735 7.71429 10.9286 7.71429H12.2143C12.5693 7.71429 12.8571 7.42647 12.8571 7.07143V5.78571C12.8571 5.43067 12.5693 5.14286 12.2143 5.14286H10.9286ZM12.2143 9.64286H10.9286C10.2185 9.64286 9.64286 10.2185 9.64286 10.9286V12.2143C9.64286 12.9244 10.2185 13.5 10.9286 13.5H12.2143C12.9244 13.5 13.5 12.9244 13.5 12.2143V10.9286C13.5 10.2185 12.9244 9.64286 12.2143 9.64286ZM10.2857 10.9286C10.2857 10.5735 10.5735 10.2857 10.9286 10.2857H12.2143C12.5693 10.2857 12.8571 10.5735 12.8571 10.9286V12.2143C12.8571 12.5693 12.5693 12.8571 12.2143 12.8571H10.9286C10.5735 12.8571 10.2857 12.5693 10.2857 12.2143V10.9286Z" fill="white"/>
</svg>
