<svg width="18" height="18" viewBox="0 0 18 18" fill="none" xmlns="http://www.w3.org/2000/svg">
<rect width="18" height="18" rx="4" fill="#333333"/>
<g clip-path="url(#clip0_23670_312740)">
<path fill-rule="evenodd" clip-rule="evenodd" d="M12.2413 5.74087C12.589 5.74087 12.8709 5.45897 12.8709 5.11124C12.8709 4.7635 12.589 4.48161 12.2413 4.48161C11.8935 4.48161 11.6117 4.7635 11.6117 5.11124C11.6117 5.45897 11.8935 5.74087 12.2413 5.74087ZM12.2413 6.40753C12.9572 6.40753 13.5376 5.82716 13.5376 5.11124C13.5376 4.39531 12.9572 3.81494 12.2413 3.81494C11.6033 3.81494 11.073 4.27579 10.9651 4.88274L9.37497 5.41277C9.03569 4.84401 8.41427 4.46305 7.70388 4.46305C6.63 4.46305 5.75944 5.33361 5.75944 6.4075C5.75944 6.70796 5.82759 6.99251 5.94928 7.24652L5.23628 7.95952C5.02045 7.79896 4.75297 7.70394 4.46329 7.70394C3.74736 7.70394 3.16699 8.28431 3.16699 9.00024C3.16699 9.71616 3.74736 10.2965 4.46329 10.2965C4.66612 10.2965 4.85808 10.2499 5.02903 10.1669L5.50373 10.6416C5.25629 11.005 5.11165 11.444 5.11165 11.9168C5.11165 13.1697 6.1273 14.1853 7.38017 14.1853C8.63304 14.1853 9.64869 13.1697 9.64869 11.9168C9.64869 11.7161 9.62262 11.5215 9.57369 11.3361L10.4855 10.8802C10.8356 11.6812 11.635 12.241 12.5651 12.241C13.8179 12.241 14.8336 11.2253 14.8336 9.97246C14.8336 8.71959 13.8179 7.70394 12.5651 7.70394C12.0649 7.70394 11.6026 7.86578 11.2276 8.13996L9.54949 7.02122C9.61361 6.8283 9.64833 6.62195 9.64833 6.4075C9.64833 6.28052 9.63616 6.15638 9.61292 6.03618L11.0266 5.56495C11.2105 6.05711 11.685 6.40753 12.2413 6.40753ZM5.95594 10.151C6.34528 9.83656 6.84074 9.64827 7.38017 9.64827C7.42048 9.64827 7.46054 9.64933 7.50033 9.6514V8.34141C7.05141 8.29471 6.64788 8.09527 6.34264 7.79597L5.65329 8.48532C5.72168 8.64316 5.75958 8.81727 5.75958 9.00024C5.75958 9.27083 5.67667 9.52207 5.53487 9.72991L5.95594 10.151ZM8.16699 9.78844V8.29645C8.59487 8.19191 8.96723 7.94578 9.2316 7.61052L10.7443 8.61902C10.463 8.99684 10.2965 9.46521 10.2965 9.97246C10.2965 10.057 10.3012 10.1404 10.3102 10.2225L9.30946 10.7229C9.04525 10.2968 8.64386 9.9648 8.16699 9.78844ZM4.46329 9.62986C4.81102 9.62986 5.09292 9.34797 5.09292 9.00024C5.09292 8.6525 4.81102 8.37061 4.46329 8.37061C4.11555 8.37061 3.83366 8.6525 3.83366 9.00024C3.83366 9.34797 4.11555 9.62986 4.46329 9.62986ZM14.1669 9.97246C14.1669 10.8571 13.4497 11.5743 12.5651 11.5743C11.6804 11.5743 10.9632 10.8571 10.9632 9.97246C10.9632 9.08778 11.6804 8.37061 12.5651 8.37061C13.4497 8.37061 14.1669 9.08778 14.1669 9.97246ZM7.70388 7.68528C8.40958 7.68528 8.98166 7.11319 8.98166 6.4075C8.98166 5.7018 8.40958 5.12972 7.70388 5.12972C6.99819 5.12972 6.42611 5.7018 6.42611 6.4075C6.42611 7.11319 6.99819 7.68528 7.70388 7.68528ZM8.98202 11.9168C8.98202 12.8015 8.26485 13.5186 7.38017 13.5186C6.49549 13.5186 5.77832 12.8015 5.77832 11.9168C5.77832 11.0321 6.49549 10.3149 7.38017 10.3149C8.26485 10.3149 8.98202 11.0321 8.98202 11.9168Z" fill="white"/>
</g>
<defs>
<clipPath id="clip0_23670_312740">
<rect width="12" height="12" fill="white" transform="translate(3 3)"/>
</clipPath>
</defs>
</svg>
