<svg width="18" height="18" viewBox="0 0 18 18" fill="none" xmlns="http://www.w3.org/2000/svg">
<rect width="18" height="18" rx="4" fill="#5551FF"/>
<mask id="mask0_22827_16001" style="mask-type:alpha" maskUnits="userSpaceOnUse" x="3" y="3" width="12" height="12">
<rect x="3" y="3" width="12" height="12" fill="#D9D9D9"/>
</mask>
<g mask="url(#mask0_22827_16001)">
<path d="M8.08706 11.875V11.125H8.79481L10.2131 9.5L8.79481 7.875H7.90244L7.10244 12.074C7.02302 12.5003 6.8729 12.8237 6.65206 13.0442C6.43123 13.2647 6.1461 13.375 5.79669 13.375C5.46335 13.375 5.19127 13.2846 4.98044 13.1039C4.76952 12.923 4.66406 12.6836 4.66406 12.3856C4.66406 12.1606 4.72285 11.9797 4.84044 11.8428C4.9581 11.7059 5.10765 11.6375 5.28906 11.6375C5.46215 11.6375 5.60956 11.6971 5.73131 11.8164C5.85315 11.9356 5.91406 12.0792 5.91406 12.2471C5.91406 12.3145 5.89915 12.3736 5.86931 12.4245C5.83948 12.4755 5.80277 12.5154 5.75919 12.5443C5.77519 12.5602 5.79765 12.5739 5.82656 12.5851C5.8554 12.5963 5.88744 12.6019 5.92269 12.6019C6.03169 12.5968 6.12081 12.5467 6.19006 12.4515C6.25923 12.3562 6.31498 12.2096 6.35731 12.0115L7.13719 7.875H5.68331V7.125H7.27656L7.52944 5.75775C7.59419 5.40583 7.73923 5.12904 7.96456 4.92738C8.1899 4.72579 8.46631 4.625 8.79381 4.625C9.12206 4.625 9.3916 4.72133 9.60244 4.914C9.81335 5.10658 9.91881 5.34933 9.91881 5.64225C9.91881 5.857 9.86002 6.03283 9.74244 6.16975C9.62477 6.30658 9.47523 6.375 9.29381 6.375C9.12073 6.375 8.97331 6.31617 8.85156 6.1985C8.72973 6.08092 8.66881 5.93558 8.66881 5.7625C8.66881 5.69517 8.68373 5.63604 8.71356 5.58512C8.7434 5.53412 8.78169 5.49421 8.82844 5.46537C8.81244 5.44612 8.7876 5.43008 8.75394 5.41725C8.72027 5.4045 8.68581 5.39812 8.65056 5.39812C8.54606 5.40837 8.4629 5.45421 8.40106 5.53562C8.33923 5.61704 8.29194 5.73754 8.25919 5.89713L8.04669 7.125H10.3371V7.875H9.78806L10.7121 8.92988L11.6362 7.875H11.0871V7.125H13.3371V7.875H12.6294L11.2112 9.5L12.6342 11.125H13.3371V11.875H11.0871V11.125H11.6362L10.7121 10.0625L9.78806 11.125H10.3371V11.875H8.08706Z" fill="white"/>
</g>
</svg>
