<svg width="18" height="18" viewBox="0 0 18 18" fill="none" xmlns="http://www.w3.org/2000/svg">
<rect width="18" height="18" rx="4" fill="#5551FF"/>
<path fill-rule="evenodd" clip-rule="evenodd" d="M4.44691 9.86125C4.29504 10.0131 4.29504 10.2594 4.44691 10.4112L6.92178 12.8861C7.07365 13.038 7.31989 13.038 7.47176 12.8861C7.62363 12.7342 7.62363 12.488 7.47176 12.3361L5.66076 10.5251H11.7219C12.7958 10.5251 13.6663 9.65457 13.6663 8.58068V7.8029C13.6663 6.72902 12.7958 5.85846 11.7219 5.85846H10.4256V6.63624H11.7219C12.3662 6.63624 12.8886 7.15857 12.8886 7.8029V8.58068C12.8886 9.22501 12.3662 9.74735 11.7219 9.74735H5.66076L7.47176 7.93635C7.62363 7.78448 7.62363 7.53825 7.47176 7.38638C7.31989 7.23451 7.07365 7.23451 6.92178 7.38638L4.44691 9.86125Z" fill="white"/>
</svg>
