<svg width="18" height="18" viewBox="0 0 18 18" fill="none" xmlns="http://www.w3.org/2000/svg">
<rect width="18" height="18" rx="4" fill="#5551FF"/>
<path d="M7.52599 12.9061L7.00074 12.3932L7.90952 11.4844H7.52599C6.63736 11.4844 5.88304 11.1736 5.26303 10.552C4.64301 9.93046 4.33301 9.17536 4.33301 8.28673C4.33301 7.3981 4.64301 6.64378 5.26303 6.02377C5.88304 5.40376 6.63736 5.09375 7.52599 5.09375H10.4734C11.362 5.09375 12.1163 5.40376 12.7363 6.02377C13.3563 6.64378 13.6663 7.3981 13.6663 8.28673C13.6663 9.17536 13.3563 9.93046 12.7363 10.552C12.1163 11.1736 11.362 11.4844 10.4734 11.4844V10.7475C11.156 10.7475 11.736 10.5081 12.2134 10.0291C12.6908 9.55017 12.9295 8.96938 12.9295 8.28673C12.9295 7.60409 12.6908 7.02407 12.2134 6.54668C11.736 6.06929 11.156 5.83059 10.4734 5.83059H7.52599C6.84335 5.83059 6.26333 6.06929 5.78594 6.54668C5.30855 7.02407 5.06985 7.60409 5.06985 8.28673C5.06985 8.96938 5.30855 9.55271 5.78594 10.0367C6.26333 10.5208 6.84335 10.7779 7.52599 10.8081H7.97755L7.01303 9.83877L7.52599 9.32593L9.31615 11.116L7.52599 12.9061Z" fill="white"/>
</svg>
