<svg width="18" height="18" viewBox="0 0 18 18" fill="none" xmlns="http://www.w3.org/2000/svg">
<rect width="18" height="18" rx="4" fill="#333333"/>
<mask id="mask0_22821_11828" style="mask-type:alpha" maskUnits="userSpaceOnUse" x="3" y="3" width="12" height="12">
<rect x="3" y="3" width="12" height="12" fill="#D9D9D9"/>
</mask>
<g mask="url(#mask0_22821_11828)">
<path fill-rule="evenodd" clip-rule="evenodd" d="M6.53265 7.88881H10.9322L8.73242 4.33325L6.53265 7.88881ZM7.72905 7.22215H9.73579L8.73242 5.60036L7.72905 7.22215ZM10.7236 12.6229C10.9798 12.8747 11.282 12.9999 11.6722 12.9999C12.0624 12.9999 12.3646 12.8747 12.6209 12.6229C12.8766 12.3716 12.9997 12.0801 12.9997 11.707C12.9997 11.3339 12.8766 11.0424 12.6209 10.7911C12.3646 10.5393 12.0624 10.4141 11.6722 10.4141C11.282 10.4141 10.9798 10.5393 10.7236 10.7911C10.4679 11.0424 10.3448 11.3339 10.3448 11.707C10.3448 12.0801 10.4679 12.3716 10.7236 12.6229ZM4.99967 10.6767V12.7373H7.12007V10.6767H4.99967ZM10.2563 13.0984C10.6418 13.4772 11.1137 13.6666 11.6722 13.6666C12.2307 13.6666 12.7027 13.4772 13.0881 13.0984C13.4736 12.7196 13.6663 12.2558 13.6663 11.707C13.6663 11.1582 13.4736 10.6944 13.0881 10.3156C12.7027 9.93681 12.2307 9.74742 11.6722 9.74742C11.1137 9.74742 10.6418 9.93681 10.2563 10.3156C9.87083 10.6944 9.6781 11.1582 9.6781 11.707C9.6781 12.2558 9.87083 12.7196 10.2563 13.0984ZM4.33301 10.01H7.78674V13.404H4.33301V10.01Z" fill="white"/>
</g>
</svg>
